<svg width="33" height="32" viewBox="0 0 33 32" fill="none" xmlns="http://www.w3.org/2000/svg">
<rect x="0.864014" width="32" height="32" rx="6" fill="#1486FF"/>
<path d="M22.15 10.7696C22.15 13.7128 19.7641 16.0987 16.8209 16.0987C13.8777 16.0987 11.4917 13.7128 11.4917 10.7696C11.4917 7.82638 13.8777 5.44043 16.8209 5.44043C19.7641 5.44043 22.15 7.82638 22.15 10.7696Z" fill="white"/>
<path d="M7.3999 22.0344C7.3999 19.412 9.52576 17.2861 12.1481 17.2861H21.5693C24.1917 17.2861 26.3176 19.412 26.3176 22.0344C26.3176 24.6568 24.1917 26.7826 21.5693 26.7826H12.1481C9.52576 26.7826 7.3999 24.6568 7.3999 22.0344Z" fill="white"/>
</svg>
