<svg width="58" height="58" viewBox="0 0 58 58" fill="none" xmlns="http://www.w3.org/2000/svg">
<circle cx="29" cy="29" r="28.6" fill="white" stroke="#DDDDDD" stroke-width="0.8"/>
<path d="M48.15 29.4503C48.15 28.1337 48.0333 26.8837 47.8333 25.667H29V33.1837H39.7833C39.3 35.6503 37.8833 37.7337 35.7833 39.1503V44.1503H42.2167C45.9833 40.667 48.15 35.5337 48.15 29.4503Z" fill="#4285F4"/>
<path d="M28.9999 48.9997C34.3999 48.9997 38.9166 47.1997 42.2166 44.1497L35.7832 39.1497C33.9832 40.3497 31.6999 41.0831 28.9999 41.0831C23.7832 41.0831 19.3666 37.5664 17.7832 32.8164H11.1499V37.9664C14.4332 44.4997 21.1832 48.9997 28.9999 48.9997Z" fill="#34A853"/>
<path d="M17.7833 32.8165C17.3667 31.6165 17.15 30.3332 17.15 28.9999C17.15 27.6665 17.3833 26.3832 17.7833 25.1832V20.0332H11.15C9.78333 22.7332 9 25.7665 9 28.9999C9 32.2332 9.78333 35.2665 11.15 37.9665L17.7833 32.8165Z" fill="#FBBC05"/>
<path d="M28.9999 16.9167C31.9499 16.9167 34.5832 17.9333 36.6666 19.9167L42.3666 14.2167C38.9166 10.9833 34.3999 9 28.9999 9C21.1832 9 14.4332 13.5 11.1499 20.0333L17.7832 25.1833C19.3666 20.4333 23.7832 16.9167 28.9999 16.9167Z" fill="#EA4335"/>
</svg>
