<svg width="32" height="32" viewBox="0 0 32 32" fill="none" xmlns="http://www.w3.org/2000/svg">
<rect width="32" height="32" rx="6" fill="#F05251"/>
<g clip-path="url(#clip0_321_2591)">
<path d="M20.6249 17.2082C20.2332 17.2082 19.9166 17.5256 19.9166 17.9165V20.7499C19.9166 21.1401 19.5992 21.4581 19.2082 21.4581H17.0832V10.8333C17.0832 10.2283 16.6979 9.68789 16.1185 9.48673L15.9088 9.41657H19.2082C19.5992 9.41657 19.9166 9.73459 19.9166 10.125V12.25C19.9166 12.6409 20.2332 12.9582 20.6249 12.9582C21.0166 12.9582 21.3332 12.6409 21.3332 12.25V10.125C21.3332 8.95341 20.3798 8 19.2082 8H11.5937C11.5668 8 11.5442 8.01206 11.518 8.01556C11.4839 8.01271 11.4513 8 11.4167 8C10.6354 8 10 8.63526 10 9.41657V22.1664C10 22.7713 10.3853 23.3118 10.9647 23.513L15.2275 24.9339C15.372 24.9786 15.5157 24.9998 15.6667 24.9998C16.448 24.9998 17.0832 24.3644 17.0832 23.5831V22.8748H19.2082C20.3798 22.8748 21.3332 21.9214 21.3332 20.7499V17.9165C21.3332 17.5256 21.0166 17.2082 20.6249 17.2082Z" fill="white"/>
<path d="M26.7924 14.583L23.959 11.7497C23.7565 11.5471 23.4519 11.4862 23.187 11.5959C22.9228 11.7058 22.7499 11.9642 22.7499 12.2505V14.3755H19.9167C19.5256 14.3755 19.2083 14.6927 19.2083 15.0838C19.2083 15.4748 19.5256 15.792 19.9167 15.792H22.7499V17.917C22.7499 18.2033 22.9228 18.4617 23.187 18.5716C23.4519 18.6813 23.7565 18.6204 23.959 18.4179L26.7924 15.5845C27.0693 15.3076 27.0693 14.8599 26.7924 14.583Z" fill="white"/>
</g>
<defs>
<clipPath id="clip0_321_2591">
<rect width="17" height="17" fill="white" transform="translate(10 8)"/>
</clipPath>
</defs>
</svg>
