<svg width="99" height="98" viewBox="0 0 99 98" fill="none" xmlns="http://www.w3.org/2000/svg">
<circle cx="49.1673" cy="48.6751" r="20.5941" fill="#1486FF"/>
<path fill-rule="evenodd" clip-rule="evenodd" d="M43.4765 3.31993C43.4765 1.26785 41.6822 -0.334972 39.6685 0.0602142C17.0579 4.4976 0 24.4243 0 48.3352C0 75.5059 22.0262 97.5322 49.197 97.5322C76.3677 97.5322 98.394 75.5059 98.394 48.3352C98.394 24.4244 81.3362 4.49774 58.7257 0.0602617C56.712 -0.334936 54.9177 1.26789 54.9177 3.31997V17.4988C54.9177 19.1313 56.076 20.5166 57.636 20.9975C69.3137 24.5982 77.7999 35.4757 77.7999 48.3352C77.7999 64.1321 64.9939 76.9381 49.197 76.9381C33.4 76.9381 20.5941 64.1321 20.5941 48.3352C20.5941 35.4756 29.0804 24.5981 40.7582 20.9975C42.3182 20.5165 43.4765 19.1312 43.4765 17.4988V3.31993Z" fill="#0E4F8B"/>
</svg>
