<svg width="290" height="315" viewBox="0 0 290 315" fill="none" xmlns="http://www.w3.org/2000/svg">
<path d="M5.35595 290.772C4.16395 290.772 3.25595 290.52 2.63195 290.016C2.01595 289.512 1.70795 288.848 1.70795 288.024C1.70795 287.48 1.82795 287.04 2.06795 286.704C2.31595 286.368 2.59195 286.2 2.89595 286.2C3.10395 286.2 3.26795 286.256 3.38795 286.368C3.17195 286.704 3.06395 287.1 3.06395 287.556C3.06395 288.06 3.24395 288.44 3.60395 288.696C3.97195 288.96 4.60395 289.092 5.49995 289.092C6.26795 289.092 6.82795 289.004 7.17995 288.828C7.53195 288.652 7.70795 288.452 7.70795 288.228C7.70795 288.076 7.65595 287.956 7.55195 287.868C7.44795 287.78 7.28795 287.708 7.07195 287.652L6.26795 287.436C5.21995 287.132 4.69595 286.536 4.69595 285.648C4.69595 285.216 4.81595 284.808 5.05595 284.424C5.30395 284.04 5.63195 283.728 6.03995 283.488C6.45595 283.24 6.91595 283.116 7.41995 283.116C7.80395 283.116 8.12395 283.192 8.37995 283.344C8.63595 283.496 8.82795 283.68 8.95595 283.896C9.09195 284.112 9.15995 284.32 9.15995 284.52C9.15995 284.744 9.08795 284.936 8.94395 285.096C8.79995 285.248 8.59995 285.344 8.34395 285.384C8.25595 285.16 8.11195 284.976 7.91195 284.832C7.71195 284.688 7.45195 284.616 7.13195 284.616C6.77195 284.616 6.48795 284.704 6.27995 284.88C6.07995 285.048 5.97995 285.24 5.97995 285.456C5.97995 285.6 6.02795 285.724 6.12395 285.828C6.21995 285.924 6.39195 286.004 6.63995 286.068L7.39595 286.284C7.93995 286.444 8.33995 286.676 8.59595 286.98C8.85995 287.284 8.99195 287.652 8.99195 288.084C8.99195 288.596 8.85595 289.052 8.58395 289.452C8.31195 289.86 7.90395 290.18 7.35995 290.412C6.82395 290.652 6.15595 290.772 5.35595 290.772ZM5.19995 291.3C5.27995 291.516 5.31995 291.708 5.31995 291.876C5.31995 292.124 5.25595 292.316 5.12795 292.452C4.99995 292.596 4.81195 292.668 4.56395 292.668C4.36395 292.668 4.15995 292.616 3.95195 292.512C3.84795 292.312 3.79595 292.116 3.79595 291.924C3.79595 291.676 3.87195 291.488 4.02395 291.36C4.17595 291.232 4.36395 291.168 4.58795 291.168C4.79595 291.168 4.99995 291.212 5.19995 291.3ZM7.19195 291.3C7.27995 291.516 7.32395 291.708 7.32395 291.876C7.32395 292.364 7.06795 292.628 6.55595 292.668C6.35595 292.668 6.15195 292.616 5.94395 292.512C5.84795 292.312 5.79995 292.116 5.79995 291.924C5.79995 291.676 5.87195 291.488 6.01595 291.36C6.16795 291.232 6.35995 291.168 6.59195 291.168C6.78395 291.168 6.98395 291.212 7.19195 291.3ZM14.3304 279.624C14.4184 279.848 14.4624 280.052 14.4624 280.236C14.4624 280.492 14.3904 280.696 14.2464 280.848C14.1104 281 13.9104 281.076 13.6464 281.076C13.4304 281.076 13.2144 281.02 12.9984 280.908C12.8944 280.692 12.8424 280.484 12.8424 280.284C12.8424 280.028 12.9184 279.832 13.0704 279.696C13.2304 279.552 13.4344 279.48 13.6824 279.48C13.8904 279.48 14.1064 279.528 14.3304 279.624ZM10.2624 286.164C10.2624 285.756 10.3624 285.452 10.5624 285.252C10.7624 285.044 10.9704 284.94 11.1864 284.94C11.3304 284.94 11.4464 284.964 11.5344 285.012C11.4864 285.132 11.4624 285.284 11.4624 285.468C11.4624 285.756 11.5624 285.988 11.7624 286.164C11.9624 286.332 12.2944 286.416 12.7584 286.416C13.4944 286.416 14.0144 286.268 14.3184 285.972L13.1064 283.512C12.8904 283.136 12.7824 282.828 12.7824 282.588C12.7824 282.364 12.8664 282.164 13.0344 281.988C13.2024 281.812 13.4344 281.724 13.7304 281.724C13.9224 281.724 14.0904 281.756 14.2344 281.82L15.4104 284.988C15.6104 285.532 15.8104 285.904 16.0104 286.104C16.2184 286.296 16.4824 286.392 16.8024 286.392C17.0184 286.392 17.1224 286.664 17.1144 287.208C17.1144 287.76 17.0104 288.052 16.8024 288.084C16.0264 288.084 15.4224 287.784 14.9904 287.184C14.7664 287.472 14.4664 287.7 14.0904 287.868C13.7144 288.036 13.2624 288.12 12.7344 288.12C11.9104 288.12 11.2904 287.932 10.8744 287.556C10.4664 287.18 10.2624 286.716 10.2624 286.164ZM16.8027 286.392H16.9467C17.2267 286.392 17.4467 286.312 17.6067 286.152C17.7667 285.984 17.8467 285.668 17.8467 285.204C17.8467 284.42 17.8347 283.676 17.8107 282.972C17.7867 282.26 17.7747 281.636 17.7747 281.1C17.7747 280.244 18.0987 279.836 18.7467 279.876C18.9547 279.876 19.1387 279.9 19.2987 279.948V285.096C19.2987 286.168 19.1027 286.936 18.7107 287.4C18.3267 287.856 17.7787 288.084 17.0667 288.084H16.8027C16.5867 288.084 16.4827 287.792 16.4907 287.208C16.4907 286.704 16.5947 286.432 16.8027 286.392ZM20.9605 288.036L20.8885 281.172C20.8885 280.684 20.9765 280.348 21.1525 280.164C21.3285 279.98 21.5645 279.888 21.8605 279.888C22.0765 279.888 22.2605 279.916 22.4125 279.972V286.524C22.4125 287.132 22.3405 287.556 22.1965 287.796C22.0525 288.028 21.8205 288.144 21.5005 288.144C21.2845 288.144 21.1045 288.108 20.9605 288.036ZM26.4874 291.504C26.2234 289.824 26.0914 288.6 26.0914 287.832C26.0914 287 26.2714 286.3 26.6314 285.732C26.9994 285.164 27.6074 284.712 28.4554 284.376C29.3034 284.04 30.4434 283.816 31.8754 283.704L32.4274 285.18C32.6034 285.668 32.7794 285.992 32.9554 286.152C33.1394 286.312 33.3714 286.392 33.6514 286.392C33.8594 286.392 33.9634 286.664 33.9634 287.208C33.9634 287.528 33.9354 287.756 33.8794 287.892C33.8234 288.02 33.7474 288.084 33.6514 288.084C33.1714 288.084 32.8034 287.928 32.5474 287.616V287.724C32.5314 288.196 32.3634 288.58 32.0434 288.876C31.7234 289.18 31.3034 289.332 30.7834 289.332C30.1194 289.332 29.5834 289.108 29.1754 288.66C28.7674 288.22 28.5634 287.648 28.5634 286.944C28.5634 286.376 28.7194 285.932 29.0314 285.612C28.5594 285.74 28.1994 285.952 27.9514 286.248C27.7114 286.536 27.5914 286.964 27.5914 287.532C27.5914 288.06 27.6434 288.648 27.7474 289.296C27.8514 289.952 27.9034 290.432 27.9034 290.736C27.9034 291.288 27.6114 291.576 27.0274 291.6C26.8274 291.6 26.6474 291.568 26.4874 291.504ZM31.2994 285.936L30.9394 285.132C30.1394 285.484 29.7394 286.004 29.7394 286.692C29.7394 287.02 29.8234 287.28 29.9914 287.472C30.1674 287.656 30.4194 287.748 30.7474 287.748C31.2674 287.748 31.5474 287.488 31.5874 286.968C31.5874 286.872 31.5714 286.748 31.5394 286.596C31.5074 286.444 31.4274 286.224 31.2994 285.936ZM42.8103 286.392C43.0023 286.392 43.1063 286.668 43.1223 287.22C43.1223 287.476 43.0943 287.684 43.0383 287.844C42.9823 288.004 42.9063 288.084 42.8103 288.084C41.9463 288.084 41.3703 287.756 41.0823 287.1C40.8423 287.756 40.3903 288.084 39.7263 288.084C38.9983 288.084 38.5223 287.772 38.2983 287.148C38.0343 287.772 37.5463 288.084 36.8343 288.084C36.5063 288.084 36.2143 288.004 35.9583 287.844C35.7103 287.676 35.5383 287.444 35.4423 287.148C35.1623 287.772 34.5663 288.084 33.6543 288.084C33.4383 288.084 33.3343 287.796 33.3423 287.22C33.3423 286.972 33.3703 286.772 33.4263 286.62C33.4743 286.468 33.5503 286.392 33.6543 286.392C34.0143 286.392 34.2663 286.328 34.4103 286.2C34.5543 286.064 34.6263 285.864 34.6263 285.6C34.6263 285.344 34.6183 285.08 34.6023 284.808C34.6023 284.6 34.6743 284.432 34.8183 284.304C34.9623 284.168 35.1583 284.1 35.4063 284.1C35.6383 284.1 35.8223 284.152 35.9583 284.256V285.012C35.9583 285.516 36.0303 285.872 36.1743 286.08C36.3183 286.288 36.5383 286.392 36.8343 286.392C37.3063 286.392 37.5303 286.136 37.5063 285.624C37.5063 285.344 37.5023 285.068 37.4943 284.796C37.4943 284.388 37.7583 284.16 38.2863 284.112C38.5263 284.112 38.7103 284.16 38.8383 284.256V285.024C38.8383 285.536 38.9063 285.892 39.0423 286.092C39.1783 286.292 39.3823 286.392 39.6543 286.392C40.0783 286.392 40.2863 286.112 40.2783 285.552C40.2783 285.104 40.2663 284.704 40.2423 284.352C40.2423 283.904 40.5143 283.66 41.0583 283.62C41.2903 283.62 41.4703 283.672 41.5983 283.776V284.916C41.5983 285.468 41.6943 285.852 41.8863 286.068C42.0863 286.284 42.3943 286.392 42.8103 286.392ZM44.7146 281.412C44.4986 281.412 44.2866 281.356 44.0786 281.244C43.9746 281.036 43.9226 280.836 43.9226 280.644C43.9226 280.124 44.1946 279.856 44.7386 279.84C44.9466 279.84 45.1586 279.888 45.3746 279.984C45.4626 280.208 45.5066 280.412 45.5066 280.596C45.5066 280.844 45.4386 281.044 45.3026 281.196C45.1666 281.34 44.9706 281.412 44.7146 281.412ZM46.7066 281.412C46.4906 281.412 46.2786 281.356 46.0706 281.244C45.9666 281.036 45.9146 280.836 45.9146 280.644C45.9146 280.388 45.9906 280.192 46.1426 280.056C46.3026 279.912 46.5026 279.84 46.7426 279.84C46.9506 279.84 47.1586 279.888 47.3666 279.984C47.4546 280.208 47.4986 280.412 47.4986 280.596C47.4986 280.844 47.4306 281.044 47.2946 281.196C47.1586 281.34 46.9626 281.412 46.7066 281.412ZM48.6986 286.392C48.9146 286.392 49.0266 286.656 49.0346 287.184C49.0346 287.416 49.0066 287.624 48.9506 287.808C48.8946 287.992 48.8106 288.084 48.6986 288.084C48.1466 288.084 47.6106 288.036 47.0906 287.94C46.5706 287.844 46.0906 287.692 45.6506 287.484C45.2746 287.668 44.8506 287.816 44.3786 287.928C43.9066 288.032 43.3906 288.084 42.8306 288.084C42.7266 288.084 42.6466 287.996 42.5906 287.82C42.5266 287.636 42.4946 287.424 42.4946 287.184C42.4946 286.96 42.5266 286.772 42.5906 286.62C42.6466 286.468 42.7266 286.392 42.8306 286.392C43.3106 286.392 43.7506 286.368 44.1506 286.32C43.6386 285.704 43.3826 285.044 43.3826 284.34C43.3826 283.644 43.6066 283.06 44.0546 282.588C44.5106 282.108 45.0506 281.868 45.6746 281.868C46.2986 281.868 46.8346 282.104 47.2826 282.576C47.7306 283.048 47.9546 283.636 47.9546 284.34C47.9546 284.756 47.8746 285.124 47.7146 285.444C47.5626 285.764 47.3666 286.044 47.1266 286.284C47.4546 286.356 47.9786 286.392 48.6986 286.392ZM45.6746 283.356C45.3786 283.356 45.1226 283.468 44.9066 283.692C44.6986 283.916 44.5946 284.188 44.5946 284.508C44.5946 284.828 44.6906 285.104 44.8826 285.336C45.0826 285.568 45.3466 285.756 45.6746 285.9C45.9786 285.764 46.2346 285.576 46.4426 285.336C46.6506 285.096 46.7546 284.816 46.7546 284.496C46.7546 284.184 46.6466 283.916 46.4306 283.692C46.2146 283.468 45.9626 283.356 45.6746 283.356ZM48.7246 286.392H48.8686C49.1486 286.392 49.3686 286.312 49.5286 286.152C49.6886 285.984 49.7686 285.668 49.7686 285.204C49.7686 284.42 49.7566 283.676 49.7326 282.972C49.7086 282.26 49.6966 281.636 49.6966 281.1C49.6966 280.244 50.0206 279.836 50.6686 279.876C50.8766 279.876 51.0606 279.9 51.2206 279.948V285.096C51.2206 286.168 51.0246 286.936 50.6326 287.4C50.2486 287.856 49.7006 288.084 48.9886 288.084H48.7246C48.5086 288.084 48.4046 287.792 48.4126 287.208C48.4126 286.704 48.5166 286.432 48.7246 286.392ZM52.8824 288.036L52.8104 281.172C52.8104 280.684 52.8984 280.348 53.0744 280.164C53.2504 279.98 53.4864 279.888 53.7824 279.888C53.9984 279.888 54.1824 279.916 54.3344 279.972V286.524C54.3344 287.132 54.2624 287.556 54.1184 287.796C53.9744 288.028 53.7424 288.144 53.4224 288.144C53.2064 288.144 53.0264 288.108 52.8824 288.036ZM58.1093 288.804C58.3973 289.052 58.8093 289.176 59.3453 289.176C59.8893 289.176 60.3413 289.036 60.7013 288.756C61.0613 288.484 61.2933 288.104 61.3973 287.616C61.1413 287.848 60.7493 287.964 60.2213 287.964C59.5173 287.964 58.9373 287.748 58.4813 287.316C58.0253 286.884 57.7973 286.328 57.7973 285.648C57.7973 284.976 58.0133 284.404 58.4453 283.932C58.8773 283.46 59.4213 283.224 60.0773 283.224C60.8693 283.224 61.4973 283.556 61.9613 284.22C62.4253 284.876 62.6573 285.792 62.6573 286.968C62.6573 288.176 62.3653 289.124 61.7813 289.812C61.1973 290.5 60.4173 290.844 59.4413 290.844C58.8333 290.844 58.3693 290.716 58.0493 290.46C57.7293 290.212 57.5693 289.924 57.5693 289.596C57.5693 289.236 57.7493 288.972 58.1093 288.804ZM58.9613 285.588C58.9613 286.14 59.3813 286.436 60.2213 286.476C60.6693 286.476 61.0413 286.396 61.3373 286.236C61.3053 285.74 61.1693 285.352 60.9293 285.072C60.6973 284.792 60.3933 284.652 60.0173 284.652C59.7053 284.652 59.4493 284.744 59.2493 284.928C59.0573 285.104 58.9613 285.324 58.9613 285.588ZM69.9526 279.66C70.0406 279.884 70.0846 280.088 70.0846 280.272C70.0846 280.52 70.0166 280.72 69.8806 280.872C69.7446 281.016 69.5486 281.088 69.2926 281.088C69.0766 281.088 68.8646 281.032 68.6566 280.92C68.5526 280.712 68.5006 280.512 68.5006 280.32C68.5006 279.8 68.7726 279.532 69.3166 279.516C69.5326 279.516 69.7446 279.564 69.9526 279.66ZM71.9566 279.66C72.0366 279.884 72.0766 280.088 72.0766 280.272C72.0766 280.52 72.0086 280.72 71.8726 280.872C71.7366 281.016 71.5406 281.088 71.2846 281.088C71.0846 281.088 70.8726 281.032 70.6486 280.92C70.5446 280.712 70.4926 280.512 70.4926 280.32C70.4926 280.064 70.5686 279.868 70.7206 279.732C70.8806 279.588 71.0806 279.516 71.3206 279.516C71.5286 279.516 71.7406 279.564 71.9566 279.66ZM72.5446 287.232C72.5446 287.808 72.4366 288.092 72.2206 288.084H71.9086C71.3406 288.084 70.8686 287.96 70.4926 287.712C70.1166 287.456 69.8646 287.112 69.7366 286.68C69.5926 286.896 69.3806 287.084 69.1006 287.244C68.8286 287.396 68.4766 287.472 68.0446 287.472C67.4206 287.472 66.9126 287.292 66.5206 286.932C66.1366 286.572 65.9446 286.116 65.9446 285.564C65.9446 285.14 66.0686 284.736 66.3166 284.352C66.5726 283.968 66.9606 283.652 67.4806 283.404C68.0006 283.148 68.6606 282.996 69.4606 282.948V282.504C69.4606 282.152 69.5526 281.904 69.7366 281.76C69.9286 281.608 70.1446 281.532 70.3846 281.532C70.6646 281.532 70.8646 281.584 70.9846 281.688V285.252C70.9846 285.684 71.0646 285.984 71.2246 286.152C71.3926 286.312 71.6526 286.392 72.0046 286.392H72.2206C72.4366 286.392 72.5446 286.672 72.5446 287.232ZM69.5326 285.42L69.4846 284.184C68.7486 284.2 68.2086 284.324 67.8646 284.556C67.5286 284.78 67.3606 285.052 67.3606 285.372C67.3606 285.604 67.4406 285.796 67.6006 285.948C67.7686 286.092 67.9886 286.164 68.2606 286.164C68.5646 286.164 68.8206 286.092 69.0286 285.948C69.2446 285.804 69.4126 285.628 69.5326 285.42ZM78.0407 286.392H78.5927C78.8007 286.392 78.9047 286.664 78.9047 287.208C78.9047 287.52 78.8767 287.744 78.8207 287.88C78.7727 288.016 78.6967 288.084 78.5927 288.084H78.3287C77.8887 288.084 77.4807 288.04 77.1047 287.952C76.7287 287.864 76.3327 287.684 75.9167 287.412C75.0447 287.86 73.9247 288.084 72.5567 288.084H72.2207C72.1167 288.084 72.0407 288.024 71.9927 287.904C71.9367 287.776 71.9087 287.548 71.9087 287.22C71.9087 286.916 71.9367 286.704 71.9927 286.584C72.0407 286.456 72.1167 286.392 72.2207 286.392H72.4847C73.2927 286.392 73.9767 286.344 74.5367 286.248C74.3767 286.088 74.2087 285.92 74.0327 285.744L72.7967 284.436L72.9287 283.044C73.8727 282.78 74.7567 282.648 75.5807 282.648C76.4607 282.648 77.1007 282.796 77.5007 283.092C77.9007 283.388 78.1007 283.82 78.1007 284.388C78.1007 285.092 77.8487 285.748 77.3447 286.356C77.5447 286.38 77.7767 286.392 78.0407 286.392ZM74.2487 284.28L75.3407 285.312C75.5647 285.528 75.7767 285.708 75.9767 285.852C76.2887 285.7 76.5167 285.536 76.6607 285.36C76.8047 285.176 76.8767 284.992 76.8767 284.808C76.8767 284.376 76.4567 284.148 75.6167 284.124C75.1527 284.124 74.6967 284.176 74.2487 284.28ZM80.48 287.148C80.272 287.484 80.012 287.724 79.7 287.868C79.388 288.012 79.02 288.084 78.596 288.084C78.396 288.084 78.288 287.792 78.272 287.208C78.272 286.912 78.304 286.704 78.368 286.584C78.424 286.456 78.5 286.392 78.596 286.392C78.908 286.392 79.164 286.312 79.364 286.152C79.572 285.984 79.832 285.604 80.144 285.012C80.456 284.404 80.808 283.952 81.2 283.656C81.592 283.36 82.048 283.212 82.568 283.212C83.232 283.212 83.788 283.444 84.236 283.908C84.692 284.372 84.92 285.008 84.92 285.816C84.92 286.56 84.72 287.156 84.32 287.604C83.928 288.044 83.42 288.264 82.796 288.264C82.444 288.264 82.08 288.18 81.704 288.012C81.336 287.844 80.928 287.556 80.48 287.148ZM81.032 285.852C81.64 286.42 82.196 286.704 82.7 286.704C83.292 286.704 83.6 286.396 83.624 285.78C83.624 285.428 83.52 285.156 83.312 284.964C83.112 284.772 82.856 284.676 82.544 284.676C82.224 284.676 81.948 284.772 81.716 284.964C81.484 285.148 81.256 285.444 81.032 285.852ZM87.7766 279.996V284.724C87.7766 285.356 87.8486 285.792 87.9926 286.032C88.1446 286.272 88.4126 286.392 88.7966 286.392H88.9286C89.1606 286.392 89.2726 286.664 89.2646 287.208C89.2646 287.76 89.1526 288.052 88.9286 288.084H88.5806C87.7966 288.084 87.2286 287.852 86.8766 287.388C86.5326 286.916 86.3526 286.18 86.3366 285.18L86.2646 281.172C86.2566 280.836 86.2966 280.576 86.3846 280.392C86.4806 280.208 86.6086 280.08 86.7686 280.008C86.9286 279.936 87.0966 279.9 87.2726 279.9C87.4566 279.9 87.6246 279.932 87.7766 279.996ZM96.5636 286.392H97.5116C97.7276 286.392 97.8316 286.664 97.8236 287.208C97.8236 287.76 97.7196 288.052 97.5116 288.084H97.1636C96.3716 288.084 95.7516 287.916 95.3036 287.58C94.8556 287.244 94.5636 286.688 94.4276 285.912L94.1036 286.236C93.4716 286.908 92.7876 287.384 92.0516 287.664C91.3236 287.944 90.4196 288.084 89.3396 288.084H88.9316C88.7156 288.084 88.6116 287.792 88.6196 287.208C88.6196 286.968 88.6476 286.772 88.7036 286.62C88.7596 286.468 88.8356 286.392 88.9316 286.392H89.7356C90.6556 286.392 91.3876 286.328 91.9316 286.2C92.4836 286.064 92.9996 285.816 93.4796 285.456C93.8316 285.192 94.1076 284.992 94.3076 284.856C94.1956 284.808 93.9356 284.676 93.5276 284.46C93.2156 284.3 92.9236 284.176 92.6516 284.088C92.3796 284 92.0956 283.956 91.7996 283.956C91.3916 283.956 91.0716 284.04 90.8396 284.208C90.6156 284.376 90.4756 284.588 90.4196 284.844C90.3316 284.876 90.2436 284.892 90.1556 284.892C90.0036 284.892 89.8516 284.816 89.6996 284.664C89.5476 284.512 89.4716 284.3 89.4716 284.028C89.4716 283.7 89.5956 283.384 89.8436 283.08C90.0276 282.856 90.2796 282.676 90.5996 282.54C90.9276 282.404 91.3036 282.336 91.7276 282.336C92.0956 282.336 92.4556 282.396 92.8076 282.516C93.1676 282.628 93.5596 282.792 93.9836 283.008C94.7676 283.424 95.4956 283.632 96.1676 283.632C96.3756 283.632 96.5716 283.624 96.7556 283.608C96.8116 283.76 96.8396 283.944 96.8396 284.16C96.8396 284.552 96.7036 284.888 96.4316 285.168H95.9756C95.7116 285.168 95.4676 285.22 95.2436 285.324C95.2916 285.724 95.4156 286.004 95.6156 286.164C95.8156 286.316 96.1316 286.392 96.5636 286.392ZM93.9236 288.252C94.1316 288.252 94.3476 288.304 94.5716 288.408C94.6596 288.632 94.7036 288.836 94.7036 289.02C94.7036 289.276 94.6316 289.48 94.4876 289.632C94.3516 289.784 94.1516 289.86 93.8876 289.86C93.6716 289.86 93.4556 289.804 93.2396 289.692C93.1356 289.476 93.0836 289.268 93.0836 289.068C93.0836 288.804 93.1596 288.6 93.3116 288.456C93.4716 288.32 93.6756 288.252 93.9236 288.252ZM97.5098 286.392H97.6538C97.9338 286.392 98.1538 286.312 98.3138 286.152C98.4738 285.984 98.5538 285.668 98.5538 285.204C98.5538 284.42 98.5418 283.676 98.5178 282.972C98.4938 282.26 98.4818 281.636 98.4818 281.1C98.4818 280.244 98.8058 279.836 99.4538 279.876C99.6618 279.876 99.8458 279.9 100.006 279.948V285.096C100.006 286.168 99.8098 286.936 99.4178 287.4C99.0338 287.856 98.4858 288.084 97.7738 288.084H97.5098C97.2938 288.084 97.1898 287.792 97.1978 287.208C97.1978 286.704 97.3018 286.432 97.5098 286.392ZM101.668 288.036L101.596 281.172C101.596 280.684 101.684 280.348 101.86 280.164C102.036 279.98 102.272 279.888 102.568 279.888C102.784 279.888 102.968 279.916 103.12 279.972V286.524C103.12 287.132 103.048 287.556 102.904 287.796C102.76 288.028 102.528 288.144 102.208 288.144C101.992 288.144 101.812 288.108 101.668 288.036ZM107.698 285.012C107.65 285.148 107.626 285.3 107.626 285.468C107.626 285.74 107.734 285.964 107.95 286.14C108.174 286.316 108.578 286.404 109.162 286.404C109.73 286.404 110.126 286.328 110.35 286.176C110.582 286.016 110.698 285.8 110.698 285.528C110.698 285.168 110.526 284.832 110.182 284.52C109.846 284.208 109.334 283.824 108.646 283.368C108.406 283.216 108.23 283.072 108.118 282.936C108.006 282.792 107.95 282.62 107.95 282.42C107.95 282.196 108.03 282.004 108.19 281.844C108.35 281.676 108.554 281.572 108.802 281.532C109.914 282.172 110.726 282.84 111.238 283.536C111.75 284.224 112.006 284.924 112.006 285.636C112.006 286.108 111.898 286.532 111.682 286.908C111.474 287.276 111.154 287.568 110.722 287.784C110.298 288 109.762 288.108 109.114 288.108C108.202 288.108 107.526 287.92 107.086 287.544C106.646 287.168 106.426 286.708 106.426 286.164C106.426 285.756 106.526 285.452 106.726 285.252C106.926 285.044 107.134 284.94 107.35 284.94C107.494 284.94 107.61 284.964 107.698 285.012ZM113.094 286.164C113.094 285.756 113.194 285.452 113.394 285.252C113.594 285.044 113.802 284.94 114.018 284.94C114.162 284.94 114.278 284.964 114.366 285.012C114.318 285.132 114.294 285.284 114.294 285.468C114.294 285.756 114.394 285.988 114.594 286.164C114.794 286.332 115.126 286.416 115.59 286.416C116.326 286.416 116.846 286.268 117.15 285.972L115.938 283.512C115.722 283.136 115.614 282.828 115.614 282.588C115.614 282.364 115.698 282.164 115.866 281.988C116.034 281.812 116.266 281.724 116.562 281.724C116.754 281.724 116.922 281.756 117.066 281.82L118.242 284.988C118.442 285.532 118.642 285.904 118.842 286.104C119.05 286.296 119.314 286.392 119.634 286.392C119.85 286.392 119.954 286.664 119.946 287.208C119.946 287.76 119.842 288.052 119.634 288.084C118.858 288.084 118.254 287.784 117.822 287.184C117.598 287.472 117.298 287.7 116.922 287.868C116.546 288.036 116.094 288.12 115.566 288.12C114.742 288.12 114.122 287.932 113.706 287.556C113.298 287.18 113.094 286.716 113.094 286.164ZM119.323 287.244C119.323 286.7 119.427 286.416 119.635 286.392H120.739C121.435 286.392 122.027 286.344 122.515 286.248C123.003 286.152 123.463 286.004 123.895 285.804C124.263 285.628 124.515 285.512 124.651 285.456C124.795 285.4 124.907 285.364 124.987 285.348C124.843 285.3 124.519 285.112 124.015 284.784C123.711 284.576 123.435 284.42 123.187 284.316C122.939 284.212 122.667 284.16 122.371 284.16C122.003 284.16 121.703 284.244 121.471 284.412C121.239 284.572 121.095 284.768 121.039 285C120.951 285.032 120.863 285.048 120.775 285.048C120.615 285.04 120.467 284.964 120.331 284.82C120.195 284.668 120.127 284.456 120.127 284.184C120.127 283.88 120.243 283.576 120.475 283.272C120.883 282.776 121.499 282.528 122.323 282.528C123.083 282.528 123.923 282.86 124.843 283.524C125.387 283.892 125.803 284.14 126.091 284.268C126.379 284.396 126.663 284.46 126.943 284.46C127.135 284.46 127.307 284.452 127.459 284.436C127.499 284.548 127.519 284.712 127.519 284.928C127.519 285.384 127.379 285.736 127.099 285.984C126.947 285.96 126.787 285.948 126.619 285.948C126.011 285.948 125.207 286.28 124.207 286.944C123.591 287.336 122.975 287.624 122.359 287.808C121.751 287.992 120.983 288.084 120.055 288.084H119.635C119.419 288.084 119.315 287.804 119.323 287.244ZM130.794 286.692L131.706 285.384C131.794 285.264 131.914 285.204 132.066 285.204C132.186 285.204 132.294 285.244 132.39 285.324C132.486 285.396 132.534 285.5 132.534 285.636C132.534 285.66 132.522 285.74 132.498 285.876L132.078 287.448C132.03 287.68 131.958 287.856 131.862 287.976C131.766 288.088 131.586 288.144 131.322 288.144H131.13C130.714 288.144 130.498 287.928 130.482 287.496V287.424C130.482 287.144 130.586 286.9 130.794 286.692ZM139.02 282.648C138.804 282.648 138.592 282.592 138.384 282.48C138.28 282.272 138.228 282.068 138.228 281.868C138.228 281.612 138.304 281.416 138.456 281.28C138.616 281.144 138.816 281.076 139.056 281.076C139.264 281.076 139.472 281.124 139.68 281.22C139.768 281.436 139.812 281.64 139.812 281.832C139.812 282.08 139.744 282.28 139.608 282.432C139.472 282.576 139.276 282.648 139.02 282.648ZM141.024 282.648C140.808 282.648 140.596 282.592 140.388 282.48C140.284 282.272 140.232 282.068 140.232 281.868C140.232 281.364 140.504 281.1 141.048 281.076C141.256 281.076 141.468 281.124 141.684 281.22C141.772 281.436 141.816 281.64 141.816 281.832C141.816 282.08 141.748 282.28 141.612 282.432C141.476 282.576 141.28 282.648 141.024 282.648ZM143.988 282.168C144.276 282.544 144.504 282.972 144.672 283.452C144.848 283.932 144.936 284.42 144.936 284.916C144.936 285.636 144.776 286.244 144.456 286.74C144.144 287.228 143.64 287.6 142.944 287.856C142.248 288.104 141.324 288.228 140.172 288.228H139.716C138.236 288.228 137.168 287.964 136.512 287.436C135.864 286.9 135.54 286.14 135.54 285.156C135.54 284.588 135.68 284.136 135.96 283.8C136.24 283.456 136.532 283.284 136.836 283.284C137.02 283.284 137.172 283.344 137.292 283.464C137.204 283.616 137.128 283.792 137.064 283.992C137.008 284.192 136.98 284.416 136.98 284.664C136.98 285.368 137.188 285.856 137.604 286.128C138.028 286.4 138.792 286.536 139.896 286.536H140.172C141.044 286.536 141.724 286.48 142.212 286.368C142.7 286.248 143.04 286.076 143.232 285.852C143.432 285.628 143.532 285.356 143.532 285.036C143.532 284.852 143.5 284.676 143.436 284.508C143.372 284.34 143.284 284.152 143.172 283.944C142.956 283.624 142.848 283.34 142.848 283.092C142.848 282.884 142.936 282.692 143.112 282.516C143.296 282.332 143.588 282.216 143.988 282.168ZM146.468 288.036L146.396 281.172C146.396 280.684 146.484 280.348 146.66 280.164C146.836 279.98 147.072 279.888 147.368 279.888C147.584 279.888 147.768 279.916 147.92 279.972V286.524C147.92 287.132 147.848 287.556 147.704 287.796C147.56 288.028 147.328 288.144 147.008 288.144C146.792 288.144 146.612 288.108 146.468 288.036ZM152.589 286.392H152.769C152.977 286.392 153.081 286.668 153.081 287.22C153.081 287.748 152.977 288.036 152.769 288.084H152.589C152.301 288.084 152.041 287.984 151.809 287.784C151.697 288.744 151.389 289.492 150.885 290.028C150.381 290.572 149.709 290.844 148.869 290.844C148.317 290.844 147.893 290.716 147.597 290.46C147.301 290.212 147.153 289.924 147.153 289.596C147.153 289.236 147.333 288.972 147.693 288.804C147.957 289.044 148.317 289.164 148.773 289.164C149.309 289.164 149.741 288.976 150.069 288.6C150.405 288.224 150.617 287.688 150.705 286.992C150.601 286.704 150.449 286.344 150.249 285.912C150.121 285.648 150.025 285.436 149.961 285.276C149.897 285.108 149.865 284.952 149.865 284.808C149.865 284.584 149.973 284.38 150.189 284.196C150.405 284.012 150.729 283.908 151.161 283.884L151.485 285.144C151.597 285.608 151.733 285.932 151.893 286.116C152.061 286.3 152.293 286.392 152.589 286.392ZM156.364 283.068C156.148 283.068 155.932 283.016 155.716 282.912C155.612 282.688 155.56 282.48 155.56 282.288C155.56 282.024 155.636 281.824 155.788 281.688C155.948 281.544 156.152 281.472 156.4 281.472C156.608 281.472 156.824 281.52 157.048 281.616C157.136 281.84 157.18 282.048 157.18 282.24C157.18 282.752 156.908 283.028 156.364 283.068ZM160.072 282.672C160.84 282.672 161.464 282.92 161.944 283.416C162.432 283.904 162.676 284.552 162.676 285.36C162.676 286.208 162.4 286.876 161.848 287.364C161.296 287.844 160.464 288.084 159.352 288.084H156.964H156.916C156.916 288.084 156.908 288.084 156.892 288.084H156.676C155.98 288.084 155.492 287.864 155.212 287.424C155.164 287.352 155.116 287.276 155.068 287.196C154.86 287.524 154.584 287.756 154.24 287.892C153.904 288.02 153.512 288.084 153.064 288.084H152.764C152.548 288.084 152.444 287.792 152.452 287.208C152.452 286.968 152.48 286.772 152.536 286.62C152.592 286.468 152.668 286.392 152.764 286.392H153.16C153.824 286.392 154.136 286.096 154.096 285.504C154.096 285.2 154.092 284.96 154.084 284.784C154.084 284.56 154.16 284.384 154.312 284.256C154.472 284.12 154.7 284.052 154.996 284.052C155.212 284.052 155.396 284.104 155.548 284.208V284.988C155.548 285.524 155.628 285.892 155.788 286.092C155.948 286.292 156.216 286.392 156.592 286.392C156.736 285.208 157.144 284.292 157.816 283.644C158.488 282.996 159.24 282.672 160.072 282.672ZM157.876 286.392H159.712C160.784 286.392 161.316 286.068 161.308 285.42C161.308 285.092 161.188 284.82 160.948 284.604C160.716 284.388 160.396 284.28 159.988 284.28C159.46 284.28 159.004 284.464 158.62 284.832C158.236 285.192 157.988 285.712 157.876 286.392ZM165.542 279.996V284.724C165.542 285.356 165.614 285.792 165.758 286.032C165.91 286.272 166.178 286.392 166.562 286.392H166.694C166.926 286.392 167.038 286.664 167.03 287.208C167.03 287.76 166.918 288.052 166.694 288.084H166.346C165.562 288.084 164.994 287.852 164.642 287.388C164.298 286.916 164.118 286.18 164.102 285.18L164.03 281.172C164.022 280.836 164.062 280.576 164.15 280.392C164.246 280.208 164.374 280.08 164.534 280.008C164.694 279.936 164.862 279.9 165.038 279.9C165.222 279.9 165.39 279.932 165.542 279.996ZM174.329 286.392H175.277C175.493 286.392 175.597 286.664 175.589 287.208C175.589 287.76 175.485 288.052 175.277 288.084H174.929C174.137 288.084 173.517 287.916 173.069 287.58C172.621 287.244 172.329 286.688 172.193 285.912L171.869 286.236C171.237 286.908 170.553 287.384 169.817 287.664C169.089 287.944 168.185 288.084 167.105 288.084H166.697C166.481 288.084 166.377 287.792 166.385 287.208C166.385 286.968 166.413 286.772 166.469 286.62C166.525 286.468 166.601 286.392 166.697 286.392H167.501C168.421 286.392 169.153 286.328 169.697 286.2C170.249 286.064 170.765 285.816 171.245 285.456C171.597 285.192 171.873 284.992 172.073 284.856C171.961 284.808 171.701 284.676 171.293 284.46C170.981 284.3 170.689 284.176 170.417 284.088C170.145 284 169.861 283.956 169.565 283.956C169.157 283.956 168.837 284.04 168.605 284.208C168.381 284.376 168.241 284.588 168.185 284.844C168.097 284.876 168.009 284.892 167.921 284.892C167.769 284.892 167.617 284.816 167.465 284.664C167.313 284.512 167.237 284.3 167.237 284.028C167.237 283.7 167.361 283.384 167.609 283.08C167.793 282.856 168.045 282.676 168.365 282.54C168.693 282.404 169.069 282.336 169.493 282.336C169.861 282.336 170.221 282.396 170.573 282.516C170.933 282.628 171.325 282.792 171.749 283.008C172.533 283.424 173.261 283.632 173.933 283.632C174.141 283.632 174.337 283.624 174.521 283.608C174.577 283.76 174.605 283.944 174.605 284.16C174.605 284.552 174.469 284.888 174.197 285.168H173.741C173.477 285.168 173.233 285.22 173.009 285.324C173.057 285.724 173.181 286.004 173.381 286.164C173.581 286.316 173.897 286.392 174.329 286.392ZM177.171 287.148C176.963 287.484 176.703 287.724 176.391 287.868C176.079 288.012 175.711 288.084 175.287 288.084C175.087 288.084 174.979 287.792 174.963 287.208C174.963 286.912 174.995 286.704 175.059 286.584C175.115 286.456 175.191 286.392 175.287 286.392C175.599 286.392 175.855 286.312 176.055 286.152C176.263 285.984 176.523 285.604 176.835 285.012C177.147 284.404 177.499 283.952 177.891 283.656C178.283 283.36 178.739 283.212 179.259 283.212C179.923 283.212 180.479 283.444 180.927 283.908C181.383 284.372 181.611 285.008 181.611 285.816C181.611 286.56 181.411 287.156 181.011 287.604C180.619 288.044 180.111 288.264 179.487 288.264C179.135 288.264 178.771 288.18 178.395 288.012C178.027 287.844 177.619 287.556 177.171 287.148ZM177.723 285.852C178.331 286.42 178.887 286.704 179.391 286.704C179.983 286.704 180.291 286.396 180.315 285.78C180.315 285.428 180.211 285.156 180.003 284.964C179.803 284.772 179.547 284.676 179.235 284.676C178.915 284.676 178.639 284.772 178.407 284.964C178.175 285.148 177.947 285.444 177.723 285.852ZM187.779 288.144C186.763 288.144 185.979 287.94 185.427 287.532C184.883 287.124 184.611 286.532 184.611 285.756C184.611 285.26 184.723 284.872 184.947 284.592C185.179 284.304 185.443 284.16 185.739 284.16C185.931 284.16 186.087 284.212 186.207 284.316C186.039 284.564 185.955 284.864 185.955 285.216C185.955 285.648 186.103 285.96 186.399 286.152C186.703 286.344 187.167 286.44 187.791 286.44C188.311 286.44 188.751 286.42 189.111 286.38C189.479 286.332 189.795 286.276 190.059 286.212L189.987 281.16C189.979 280.72 190.063 280.404 190.239 280.212C190.423 280.012 190.667 279.912 190.971 279.912C191.203 279.912 191.379 279.94 191.499 279.996V287.424C191.083 287.64 190.567 287.816 189.951 287.952C189.335 288.08 188.611 288.144 187.779 288.144ZM188.103 285.348H187.527C187.295 285.348 187.127 285.296 187.023 285.192C186.927 285.088 186.879 284.944 186.879 284.76C186.879 284.696 186.887 284.632 186.903 284.568H187.959C188.135 284.568 188.255 284.552 188.319 284.52C188.383 284.48 188.415 284.424 188.415 284.352C188.415 284.216 188.255 284.064 187.935 283.896L187.407 283.632C187.407 283.32 187.519 283.08 187.743 282.912L188.343 282.432C188.551 282.248 188.731 282.156 188.883 282.156C189.171 282.156 189.327 282.324 189.351 282.66L188.427 283.32L188.655 283.452C188.871 283.596 189.019 283.748 189.099 283.908C189.179 284.068 189.219 284.228 189.219 284.388C189.219 284.668 189.119 284.9 188.919 285.084C188.719 285.26 188.447 285.348 188.103 285.348ZM194.57 279.996V284.724C194.57 285.356 194.642 285.792 194.786 286.032C194.938 286.272 195.206 286.392 195.59 286.392H195.722C195.954 286.392 196.066 286.664 196.058 287.208C196.058 287.76 195.946 288.052 195.722 288.084H195.374C194.59 288.084 194.022 287.852 193.67 287.388C193.326 286.916 193.146 286.18 193.13 285.18L193.058 281.172C193.05 280.836 193.09 280.576 193.178 280.392C193.274 280.208 193.402 280.08 193.562 280.008C193.722 279.936 193.89 279.9 194.066 279.9C194.25 279.9 194.418 279.932 194.57 279.996ZM197.861 283.38C197.645 283.38 197.429 283.328 197.213 283.224C197.101 283.008 197.045 282.8 197.045 282.6C197.045 282.336 197.125 282.136 197.285 282C197.445 281.856 197.645 281.784 197.885 281.784C198.101 281.784 198.317 281.832 198.533 281.928C198.621 282.152 198.665 282.36 198.665 282.552C198.665 282.808 198.597 283.012 198.461 283.164C198.325 283.308 198.125 283.38 197.861 283.38ZM199.673 286.392H199.853C200.061 286.392 200.165 286.664 200.165 287.208C200.165 287.76 200.061 288.052 199.853 288.084H199.637C198.941 288.084 198.453 287.864 198.173 287.424C198.125 287.352 198.077 287.276 198.029 287.196C197.821 287.524 197.545 287.756 197.201 287.892C196.865 288.02 196.473 288.084 196.025 288.084H195.725C195.509 288.084 195.405 287.792 195.413 287.208C195.413 286.968 195.441 286.772 195.497 286.62C195.553 286.468 195.629 286.392 195.725 286.392H196.121C196.785 286.392 197.097 286.088 197.057 285.48C197.057 285.152 197.049 284.888 197.033 284.688C197.033 284.456 197.109 284.276 197.261 284.148C197.421 284.012 197.653 283.944 197.957 283.944C198.173 283.944 198.357 283.992 198.509 284.088V284.988C198.509 285.548 198.597 285.924 198.773 286.116C198.949 286.3 199.249 286.392 199.673 286.392ZM201.746 281.136L204.962 283.176C205.85 283.736 206.462 284.216 206.798 284.616C207.134 285.008 207.302 285.444 207.302 285.924C207.302 286.308 207.214 286.68 207.038 287.04C206.87 287.392 206.61 287.684 206.258 287.916C205.914 288.148 205.482 288.264 204.962 288.264C204.194 288.264 203.458 288.036 202.754 287.58C202.01 287.916 201.042 288.084 199.85 288.084C199.77 288.084 199.698 288.012 199.634 287.868C199.57 287.724 199.538 287.504 199.538 287.208C199.538 286.912 199.57 286.704 199.634 286.584C199.698 286.456 199.77 286.392 199.85 286.392C200.378 286.392 200.902 286.36 201.422 286.296C201.086 285.792 200.918 285.272 200.918 284.736C200.918 284.384 201.014 284.052 201.206 283.74C201.398 283.428 201.662 283.18 201.998 282.996L201.494 282.684C201.158 282.492 200.99 282.252 200.99 281.964C200.99 281.756 201.062 281.576 201.206 281.424C201.35 281.264 201.53 281.168 201.746 281.136ZM202.886 286.056C203.55 285.744 203.882 285.312 203.882 284.76C203.882 284.48 203.798 284.256 203.63 284.088C203.462 283.92 203.242 283.836 202.97 283.836C202.698 283.836 202.474 283.924 202.298 284.1C202.122 284.268 202.034 284.488 202.034 284.76C202.034 285.016 202.11 285.256 202.262 285.48C202.422 285.704 202.63 285.896 202.886 286.056ZM205.202 286.896C205.826 286.896 206.142 286.62 206.15 286.068C206.15 285.812 206.058 285.608 205.874 285.456C205.698 285.296 205.406 285.096 204.998 284.856C204.982 285.592 204.698 286.196 204.146 286.668C204.482 286.82 204.834 286.896 205.202 286.896ZM214.73 283.128C214.53 283.128 214.318 283.076 214.094 282.972C213.99 282.756 213.938 282.552 213.938 282.36C213.938 282.104 214.014 281.908 214.166 281.772C214.326 281.636 214.526 281.568 214.766 281.568C214.974 281.568 215.182 281.612 215.39 281.7C215.478 281.924 215.522 282.128 215.522 282.312C215.522 282.56 215.454 282.76 215.318 282.912C215.182 283.056 214.986 283.128 214.73 283.128ZM216.734 283.128C216.518 283.128 216.306 283.076 216.098 282.972C215.994 282.756 215.942 282.552 215.942 282.36C215.942 282.104 216.018 281.908 216.17 281.772C216.322 281.636 216.518 281.568 216.758 281.568C216.974 281.568 217.186 281.612 217.394 281.7C217.482 281.924 217.526 282.128 217.526 282.312C217.526 282.56 217.458 282.76 217.322 282.912C217.186 283.056 216.99 283.128 216.734 283.128ZM220.982 286.392H221.186C221.418 286.392 221.53 286.664 221.522 287.208C221.522 287.76 221.41 288.052 221.186 288.084H221.006C220.59 288.084 220.202 287.996 219.842 287.82C219.482 287.636 219.206 287.388 219.014 287.076C218.174 287.828 217.026 288.204 215.57 288.204H215.114C213.634 288.204 212.566 287.94 211.91 287.412C211.262 286.876 210.938 286.12 210.938 285.144C210.938 284.568 211.078 284.112 211.358 283.776C211.638 283.44 211.93 283.272 212.234 283.272C212.418 283.272 212.57 283.328 212.69 283.44C212.602 283.592 212.526 283.772 212.462 283.98C212.406 284.18 212.378 284.404 212.378 284.652C212.378 285.348 212.586 285.836 213.002 286.116C213.426 286.388 214.19 286.524 215.294 286.524H215.57C216.786 286.524 217.746 286.236 218.45 285.66C218.378 285.26 218.342 284.928 218.342 284.664C218.342 284.384 218.414 284.16 218.558 283.992C218.702 283.824 218.914 283.74 219.194 283.74C219.482 283.74 219.702 283.788 219.854 283.884V284.568C219.854 285.296 219.95 285.784 220.142 286.032C220.334 286.272 220.614 286.392 220.982 286.392ZM230.369 286.392C230.561 286.392 230.665 286.668 230.681 287.22C230.681 287.476 230.653 287.684 230.597 287.844C230.541 288.004 230.465 288.084 230.369 288.084C229.505 288.084 228.929 287.756 228.641 287.1C228.401 287.756 227.949 288.084 227.285 288.084C226.557 288.084 226.081 287.772 225.857 287.148C225.593 287.772 225.105 288.084 224.393 288.084C224.065 288.084 223.773 288.004 223.517 287.844C223.269 287.676 223.097 287.444 223.001 287.148C222.721 287.772 222.125 288.084 221.213 288.084C220.997 288.084 220.893 287.796 220.901 287.22C220.901 286.972 220.929 286.772 220.985 286.62C221.033 286.468 221.109 286.392 221.213 286.392C221.573 286.392 221.825 286.328 221.969 286.2C222.113 286.064 222.185 285.864 222.185 285.6C222.185 285.344 222.177 285.08 222.161 284.808C222.161 284.6 222.233 284.432 222.377 284.304C222.521 284.168 222.717 284.1 222.965 284.1C223.197 284.1 223.381 284.152 223.517 284.256V285.012C223.517 285.516 223.589 285.872 223.733 286.08C223.877 286.288 224.097 286.392 224.393 286.392C224.865 286.392 225.089 286.136 225.065 285.624C225.065 285.344 225.061 285.068 225.053 284.796C225.053 284.388 225.317 284.16 225.845 284.112C226.085 284.112 226.269 284.16 226.397 284.256V285.024C226.397 285.536 226.465 285.892 226.601 286.092C226.737 286.292 226.941 286.392 227.213 286.392C227.637 286.392 227.845 286.112 227.837 285.552C227.837 285.104 227.825 284.704 227.801 284.352C227.801 283.904 228.073 283.66 228.617 283.62C228.849 283.62 229.029 283.672 229.157 283.776V284.916C229.157 285.468 229.253 285.852 229.445 286.068C229.645 286.284 229.953 286.392 230.369 286.392ZM234.313 286.392H234.493C234.701 286.392 234.805 286.664 234.805 287.208C234.805 287.76 234.701 288.052 234.493 288.084H234.277C233.581 288.084 233.093 287.864 232.813 287.424C232.765 287.352 232.717 287.276 232.669 287.196C232.461 287.524 232.185 287.756 231.841 287.892C231.505 288.02 231.113 288.084 230.665 288.084H230.365C230.149 288.084 230.045 287.792 230.053 287.208C230.053 286.712 230.157 286.44 230.365 286.392H230.761C231.425 286.392 231.737 286.076 231.697 285.444C231.697 284.66 231.685 284.012 231.661 283.5C231.661 282.924 231.973 282.628 232.597 282.612C232.813 282.612 232.997 282.652 233.149 282.732V284.988C233.149 285.548 233.237 285.924 233.413 286.116C233.589 286.3 233.889 286.392 234.313 286.392ZM231.469 288.636C231.661 288.636 231.861 288.68 232.069 288.768C232.157 288.976 232.201 289.172 232.201 289.356C232.201 289.836 231.949 290.092 231.445 290.124C231.245 290.124 231.041 290.076 230.833 289.98C230.737 289.78 230.689 289.584 230.689 289.392C230.689 289.144 230.761 288.956 230.905 288.828C231.057 288.7 231.245 288.636 231.469 288.636ZM233.449 288.636C233.657 288.636 233.861 288.68 234.061 288.768C234.141 288.976 234.181 289.172 234.181 289.356C234.181 289.836 233.929 290.092 233.425 290.124C233.225 290.124 233.021 290.076 232.813 289.98C232.717 289.78 232.669 289.584 232.669 289.392C232.669 289.144 232.741 288.956 232.885 288.828C233.037 288.7 233.225 288.636 233.449 288.636ZM234.49 286.392H234.634C234.914 286.392 235.134 286.312 235.294 286.152C235.454 285.984 235.534 285.668 235.534 285.204C235.534 284.42 235.522 283.676 235.498 282.972C235.474 282.26 235.462 281.636 235.462 281.1C235.462 280.244 235.786 279.836 236.434 279.876C236.642 279.876 236.826 279.9 236.986 279.948V285.096C236.986 286.168 236.79 286.936 236.398 287.4C236.014 287.856 235.466 288.084 234.754 288.084H234.49C234.274 288.084 234.17 287.792 234.178 287.208C234.178 286.704 234.282 286.432 234.49 286.392ZM86.1385 297.96L88.4905 297.732C88.8905 297.692 89.0905 297.836 89.0905 298.164C89.0905 298.284 89.0705 298.388 89.0305 298.476L86.6905 298.716C86.3065 298.74 86.1145 298.572 86.1145 298.212C86.1145 298.124 86.1225 298.04 86.1385 297.96ZM86.2465 299.1L88.5985 298.872C88.9985 298.832 89.1985 298.976 89.1985 299.304C89.1985 299.424 89.1785 299.528 89.1385 299.616L86.7985 299.856C86.4145 299.88 86.2225 299.712 86.2225 299.352C86.2225 299.28 86.2305 299.196 86.2465 299.1ZM86.3756 306.392H89.1476C90.1076 306.392 90.7516 306.252 91.0796 305.972C91.4156 305.692 91.5836 305.136 91.5836 304.304C91.5836 303.968 91.5676 303.46 91.5356 302.78C91.5116 302.1 91.4996 301.588 91.4996 301.244C91.4996 300.796 91.5676 300.456 91.7036 300.224C91.8476 299.992 92.1156 299.876 92.5076 299.876C92.7156 299.876 92.8876 299.9 93.0236 299.948V304.52C93.0236 305.768 92.7356 306.676 92.1596 307.244C91.5916 307.812 90.6236 308.096 89.2556 308.096H88.1876C87.5556 308.096 87.1036 307.968 86.8316 307.712C86.5596 307.448 86.4076 307.008 86.3756 306.392ZM89.5436 305.408L86.9276 301.664C86.9436 301.376 87.0276 301.148 87.1796 300.98C87.3396 300.804 87.5436 300.716 87.7916 300.716C88.1276 300.716 88.4276 300.944 88.6916 301.4L90.3116 304.004C90.5116 304.324 90.6116 304.588 90.6116 304.796C90.6116 305.212 90.3836 305.432 89.9276 305.456C89.7596 305.456 89.6316 305.44 89.5436 305.408ZM94.5077 308.804C94.7957 309.052 95.2077 309.176 95.7437 309.176C96.2877 309.176 96.7397 309.036 97.0997 308.756C97.4597 308.484 97.6917 308.104 97.7957 307.616C97.5397 307.848 97.1477 307.964 96.6197 307.964C95.9157 307.964 95.3357 307.748 94.8797 307.316C94.4237 306.884 94.1957 306.328 94.1957 305.648C94.1957 304.976 94.4117 304.404 94.8437 303.932C95.2757 303.46 95.8197 303.224 96.4757 303.224C97.2677 303.224 97.8957 303.556 98.3597 304.22C98.8237 304.876 99.0557 305.792 99.0557 306.968C99.0557 308.176 98.7637 309.124 98.1797 309.812C97.5957 310.5 96.8157 310.844 95.8397 310.844C95.2317 310.844 94.7677 310.716 94.4477 310.46C94.1277 310.212 93.9677 309.924 93.9677 309.596C93.9677 309.236 94.1477 308.972 94.5077 308.804ZM95.3597 305.588C95.3597 306.14 95.7797 306.436 96.6197 306.476C97.0677 306.476 97.4397 306.396 97.7357 306.236C97.7037 305.74 97.5677 305.352 97.3277 305.072C97.0957 304.792 96.7917 304.652 96.4157 304.652C96.1037 304.652 95.8477 304.744 95.6477 304.928C95.4557 305.104 95.3597 305.324 95.3597 305.588ZM100.484 308.036L100.412 301.172C100.412 300.684 100.5 300.348 100.676 300.164C100.852 299.98 101.088 299.888 101.384 299.888C101.6 299.888 101.784 299.916 101.936 299.972V306.524C101.936 307.132 101.864 307.556 101.72 307.796C101.576 308.028 101.344 308.144 101.024 308.144C100.808 308.144 100.628 308.108 100.484 308.036ZM112.119 307.232C112.119 307.808 112.011 308.092 111.795 308.084H111.483C110.915 308.084 110.443 307.96 110.067 307.712C109.691 307.456 109.439 307.112 109.311 306.68C109.167 306.896 108.955 307.084 108.675 307.244C108.403 307.396 108.051 307.472 107.619 307.472C106.995 307.472 106.487 307.292 106.095 306.932C105.711 306.572 105.519 306.116 105.519 305.564C105.519 305.14 105.643 304.736 105.891 304.352C106.147 303.968 106.535 303.652 107.055 303.404C107.575 303.148 108.235 302.996 109.035 302.948V302.504C109.035 302.152 109.127 301.904 109.311 301.76C109.503 301.608 109.719 301.532 109.959 301.532C110.239 301.532 110.439 301.584 110.559 301.688V305.252C110.559 305.684 110.639 305.984 110.799 306.152C110.967 306.312 111.227 306.392 111.579 306.392H111.795C112.011 306.392 112.119 306.672 112.119 307.232ZM109.107 305.42L109.059 304.184C108.323 304.2 107.783 304.324 107.439 304.556C107.103 304.78 106.935 305.052 106.935 305.372C106.935 305.604 107.015 305.796 107.175 305.948C107.343 306.092 107.563 306.164 107.835 306.164C108.139 306.164 108.395 306.092 108.603 305.948C108.819 305.804 108.987 305.628 109.107 305.42ZM115.743 306.392H115.923C116.131 306.392 116.235 306.664 116.235 307.208C116.235 307.76 116.131 308.052 115.923 308.084H115.707C115.011 308.084 114.523 307.864 114.243 307.424C114.195 307.352 114.147 307.276 114.099 307.196C113.891 307.524 113.615 307.756 113.271 307.892C112.935 308.02 112.543 308.084 112.095 308.084H111.795C111.579 308.084 111.475 307.792 111.483 307.208C111.483 306.968 111.511 306.772 111.567 306.62C111.623 306.468 111.699 306.392 111.795 306.392H112.191C112.855 306.392 113.167 306.088 113.127 305.48C113.127 305.152 113.119 304.888 113.103 304.688C113.103 304.456 113.179 304.276 113.331 304.148C113.491 304.012 113.723 303.944 114.027 303.944C114.243 303.944 114.427 303.992 114.579 304.088V304.988C114.579 305.548 114.667 305.924 114.843 306.116C115.019 306.3 115.319 306.392 115.743 306.392ZM112.899 308.612C113.091 308.612 113.291 308.66 113.499 308.756C113.587 308.972 113.631 309.164 113.631 309.332C113.631 309.572 113.563 309.76 113.427 309.896C113.299 310.04 113.115 310.112 112.875 310.112C112.675 310.112 112.471 310.06 112.263 309.956C112.167 309.748 112.119 309.556 112.119 309.38C112.119 308.884 112.379 308.628 112.899 308.612ZM114.879 308.612C115.087 308.612 115.291 308.66 115.491 308.756C115.571 308.972 115.611 309.164 115.611 309.332C115.611 309.572 115.547 309.76 115.419 309.896C115.291 310.04 115.103 310.112 114.855 310.112C114.655 310.112 114.451 310.06 114.243 309.956C114.147 309.748 114.099 309.556 114.099 309.38C114.099 309.132 114.171 308.94 114.315 308.804C114.467 308.676 114.655 308.612 114.879 308.612ZM119.112 298.928C119.2 299.152 119.244 299.356 119.244 299.54C119.244 299.796 119.172 300 119.028 300.152C118.892 300.304 118.696 300.38 118.44 300.38C118.216 300.38 117.996 300.324 117.78 300.212C117.676 299.996 117.624 299.788 117.624 299.588C117.624 299.332 117.7 299.136 117.852 299C118.012 298.856 118.216 298.784 118.464 298.784C118.68 298.784 118.896 298.832 119.112 298.928ZM115.572 307.232C115.572 306.96 115.6 306.752 115.656 306.608C115.704 306.464 115.792 306.392 115.92 306.392H116.664C117.712 306.392 118.472 306.276 118.944 306.044C119.424 305.804 119.704 305.452 119.784 304.988C119.656 305.116 119.488 305.224 119.28 305.312C119.072 305.392 118.808 305.432 118.488 305.432C117.832 305.432 117.284 305.228 116.844 304.82C116.412 304.412 116.188 303.872 116.172 303.2C116.172 302.536 116.384 301.972 116.808 301.508C117.24 301.044 117.796 300.812 118.476 300.812C119.236 300.812 119.856 301.132 120.336 301.772C120.816 302.404 121.056 303.316 121.056 304.508C121.056 306.892 119.576 308.084 116.616 308.084H115.92C115.792 308.084 115.704 308.008 115.656 307.856C115.6 307.696 115.572 307.488 115.572 307.232ZM117.336 303.164C117.336 303.716 117.756 304.012 118.596 304.052C119.044 304.052 119.416 303.972 119.712 303.812C119.68 303.308 119.544 302.916 119.304 302.636C119.072 302.356 118.768 302.216 118.392 302.216C118.08 302.216 117.824 302.308 117.624 302.492C117.432 302.676 117.336 302.9 117.336 303.164ZM136.756 302.828C137.236 303.588 137.476 304.472 137.476 305.48C137.476 306.312 137.3 306.956 136.948 307.412C136.596 307.86 136.124 308.084 135.532 308.084C135.14 308.084 134.82 307.996 134.572 307.82C134.332 307.644 134.16 307.404 134.056 307.1C133.784 307.756 133.24 308.084 132.424 308.084C131.96 308.084 131.656 307.964 131.512 307.724C131.472 308.724 131.152 309.512 130.552 310.088C129.96 310.672 129.104 310.964 127.984 310.964C126.856 310.964 125.976 310.688 125.344 310.136C124.712 309.592 124.396 308.792 124.396 307.736C124.412 307.008 124.564 306.448 124.852 306.056C125.148 305.664 125.456 305.468 125.776 305.468C125.96 305.468 126.12 305.524 126.256 305.636C126.12 305.812 126.004 306.044 125.908 306.332C125.812 306.612 125.764 306.952 125.764 307.352C125.764 308.648 126.512 309.288 128.008 309.272C128.792 309.272 129.352 309.112 129.688 308.792C130.024 308.472 130.192 308.06 130.192 307.556C130.192 307.156 130.128 306.684 130 306.14C129.896 305.82 129.844 305.516 129.844 305.228C129.844 304.676 130.256 304.38 131.08 304.34C131.28 305.18 131.472 305.732 131.656 305.996C131.848 306.26 132.104 306.392 132.424 306.392C132.68 306.392 132.868 306.324 132.988 306.188C133.116 306.052 133.18 305.812 133.18 305.468C133.18 305.18 133.176 304.9 133.168 304.628C133.168 304.204 133.424 303.972 133.936 303.932C134.176 303.932 134.368 303.984 134.512 304.088V304.916C134.512 305.46 134.588 305.844 134.74 306.068C134.892 306.284 135.116 306.392 135.412 306.392C135.636 306.392 135.808 306.32 135.928 306.176C136.056 306.024 136.12 305.8 136.12 305.504C136.12 305.272 136.092 305.056 136.036 304.856C135.988 304.648 135.92 304.436 135.832 304.22C135.712 303.932 135.652 303.704 135.652 303.536C135.652 303.344 135.752 303.18 135.952 303.044C136.152 302.9 136.42 302.828 136.756 302.828ZM131.356 307.556H131.392C131.368 307.54 131.356 307.54 131.356 307.556ZM140.364 303.644C140.604 304.044 140.808 304.568 140.976 305.216C141.144 305.864 141.228 306.456 141.228 306.992C141.228 308.176 140.968 309.112 140.448 309.8C139.928 310.496 139.192 310.844 138.24 310.844C137.688 310.844 137.264 310.716 136.968 310.46C136.672 310.212 136.524 309.924 136.524 309.596C136.524 309.236 136.704 308.972 137.064 308.804C137.328 309.044 137.688 309.164 138.144 309.164C138.68 309.164 139.112 308.976 139.44 308.6C139.776 308.224 139.988 307.688 140.076 306.992C139.884 306.488 139.64 305.924 139.344 305.3C139.192 305.036 139.116 304.804 139.116 304.604C139.116 304.308 139.236 304.08 139.476 303.92C139.724 303.752 140.02 303.66 140.364 303.644ZM142.485 306.164C142.485 305.756 142.585 305.452 142.785 305.252C142.985 305.044 143.193 304.94 143.409 304.94C143.553 304.94 143.669 304.964 143.757 305.012C143.709 305.132 143.685 305.284 143.685 305.468C143.685 305.756 143.785 305.988 143.985 306.164C144.185 306.332 144.517 306.416 144.981 306.416C145.717 306.416 146.237 306.268 146.541 305.972L145.329 303.512C145.113 303.136 145.005 302.828 145.005 302.588C145.005 302.364 145.089 302.164 145.257 301.988C145.425 301.812 145.657 301.724 145.953 301.724C146.145 301.724 146.313 301.756 146.457 301.82L147.633 304.988C147.833 305.532 148.033 305.904 148.233 306.104C148.441 306.296 148.705 306.392 149.025 306.392C149.241 306.392 149.345 306.664 149.337 307.208C149.337 307.76 149.233 308.052 149.025 308.084C148.249 308.084 147.645 307.784 147.213 307.184C146.989 307.472 146.689 307.7 146.313 307.868C145.937 308.036 145.485 308.12 144.957 308.12C144.133 308.12 143.513 307.932 143.097 307.556C142.689 307.18 142.485 306.716 142.485 306.164ZM150.849 301.136C150.937 301.36 150.981 301.564 150.981 301.748C150.981 301.996 150.913 302.196 150.777 302.348C150.641 302.492 150.445 302.564 150.189 302.564C149.973 302.564 149.761 302.508 149.553 302.396C149.449 302.188 149.397 301.988 149.397 301.796C149.397 301.54 149.473 301.344 149.625 301.208C149.785 301.064 149.985 300.992 150.225 300.992C150.433 300.992 150.641 301.04 150.849 301.136ZM152.853 301.136C152.941 301.36 152.985 301.564 152.985 301.748C152.985 301.996 152.917 302.196 152.781 302.348C152.645 302.492 152.449 302.564 152.193 302.564C151.977 302.564 151.765 302.508 151.557 302.396C151.453 302.188 151.401 301.988 151.401 301.796C151.401 301.276 151.673 301.008 152.217 300.992C152.433 300.992 152.645 301.04 152.853 301.136ZM151.665 303.056C152.041 303.776 152.229 304.552 152.229 305.384C152.229 306.224 151.981 306.884 151.485 307.364C150.997 307.844 150.277 308.084 149.325 308.084H149.025C148.809 308.084 148.705 307.796 148.713 307.22C148.713 306.692 148.817 306.416 149.025 306.392H149.337C149.921 306.392 150.325 306.312 150.549 306.152C150.781 305.984 150.897 305.752 150.897 305.456C150.897 305.216 150.813 304.932 150.645 304.604C150.517 304.34 150.453 304.12 150.453 303.944C150.453 303.728 150.553 303.532 150.753 303.356C150.953 303.18 151.257 303.08 151.665 303.056Z" fill="black" fill-opacity="0.25"/>
<rect x="4.03" y="116.03" width="230.94" height="128.94" rx="21.97" stroke="black" stroke-opacity="0.25" stroke-width="8.06"/>
<circle cx="74.3373" cy="159.135" r="7.33267" fill="black" fill-opacity="0.25"/>
<circle cx="160.586" cy="156.656" r="7.33267" fill="black" fill-opacity="0.25"/>
<path d="M66.2441 146.126C69.2225 147.141 75.895 148.128 78.7577 143.954M169.375 137.884C166.913 139.843 160.963 143.02 156.862 140.056" stroke="black" stroke-opacity="0.25" stroke-width="3" stroke-linecap="round"/>
<path fill-rule="evenodd" clip-rule="evenodd" d="M143.245 188.206C143.359 187.666 143.013 187.135 142.472 187.022C141.932 186.908 141.402 187.254 141.288 187.794C141.125 188.57 141.018 189.789 141.002 191.031C140.996 191.507 141.003 192.002 141.026 192.489C140.987 192.491 140.945 192.493 140.9 192.495C140.553 192.511 140.051 192.535 139.425 192.569C138.173 192.637 136.427 192.744 134.443 192.899C130.494 193.208 125.541 193.714 121.693 194.501C112.352 196.414 105.993 198.697 101.941 200.524C99.9149 201.438 98.4666 202.238 97.5115 202.819C97.034 203.11 96.68 203.347 96.4389 203.515C96.3184 203.6 96.2261 203.667 96.1607 203.716C96.128 203.741 96.1021 203.76 96.0827 203.775L96.0585 203.794L96.0501 203.801L96.0468 203.804L96.0454 203.805C96.0447 203.805 96.0441 203.806 97 205L96.0441 203.806C95.3843 204.334 95.2775 205.296 95.8054 205.956C96.3323 206.615 97.2925 206.722 97.9522 206.198C97.9523 206.198 97.9524 206.198 97.9526 206.198C97.9533 206.197 97.9541 206.196 97.9548 206.196L97.9538 206.197L97.9559 206.195C97.9623 206.19 97.9752 206.18 97.9948 206.166C98.034 206.136 98.0998 206.088 98.1936 206.022C98.3812 205.891 98.6809 205.69 99.1034 205.433C99.9482 204.918 101.285 204.177 103.199 203.314C107.027 201.587 113.168 199.37 122.307 197.499C125.959 196.752 130.756 196.257 134.682 195.95C136.636 195.797 138.358 195.692 139.591 195.625C140.207 195.591 140.701 195.567 141.04 195.552C141.209 195.544 141.34 195.538 141.428 195.535L141.481 195.532C141.88 197.262 142.12 197.977 142.606 198.947C142.853 199.441 143.453 199.642 143.947 199.395C144.441 199.148 144.641 198.547 144.394 198.053C143.952 197.169 143.76 196.593 143.243 194.255C143.059 193.424 142.987 192.238 143.002 191.057C143.017 189.878 143.119 188.803 143.245 188.206Z" fill="black" fill-opacity="0.25"/>
<line x1="41" y1="257" x2="197.003" y2="257" stroke="black" stroke-opacity="0.25" stroke-width="8" stroke-linecap="round"/>
<path d="M239 112C251.865 112 265.319 91.9822 272.369 74.318C279.635 56.1108 283 29.087 283 7" stroke="black" stroke-opacity="0.25" stroke-width="3" stroke-linecap="round"/>
<path d="M278.146 10.2614C278.513 9.52655 278.966 8.83413 279.341 8.10124C280.018 6.77897 280.689 5.46036 281.489 4.20652C281.826 3.67821 282.121 3.12895 282.567 2.68268C282.673 2.57695 282.786 2.46796 282.901 2.37264C283.007 2.28549 283.049 2.44831 283.094 2.52462C283.321 2.9065 283.562 3.27626 283.763 3.67358C284.085 4.31033 284.324 4.98054 284.61 5.6331C284.851 6.18416 285.154 6.6943 285.455 7.21368C285.676 7.59622 285.856 7.99849 286.069 8.38493C286.444 9.065 286.871 9.79267 287.52 10.2249" stroke="black" stroke-opacity="0.25" stroke-width="3" stroke-linecap="round"/>
</svg>
