<svg width="32" height="32" viewBox="0 0 32 32" fill="none" xmlns="http://www.w3.org/2000/svg">
<rect width="32" height="32" rx="6" fill="#0AAF72"/>
<g clip-path="url(#clip0_321_2556)">
<path fill-rule="evenodd" clip-rule="evenodd" d="M25.7058 8.05394C25.7825 8.51723 26.1731 10.8764 26.2323 13.9598V13.9603C26.2787 17.0317 25.9858 18.5601 25.9289 18.857L25.9289 18.857C25.9219 18.8932 25.9185 18.9111 25.9196 18.9112C25.6604 19.8721 25.1242 20.8504 24.331 21.8475C23.5032 22.8867 22.3853 23.9606 21.0343 25.0171C18.7998 26.7712 16.7054 27.8231 16.6173 27.8601C16.4279 27.9534 16.2268 28.0007 16.0192 28.0007C15.812 28.0012 15.6109 27.9539 15.421 27.8611C15.3334 27.824 13.2414 26.7754 11.0059 25.0209C9.65542 23.9653 8.53745 22.8914 7.71011 21.8517C6.96995 20.9207 6.45339 20.0053 6.17729 19.1053C6.17906 19.1051 6.17506 19.0916 6.16656 19.0628C6.09375 18.816 5.69044 17.449 5.74417 13.7821C5.83358 10.1663 6.3072 8.29778 6.40574 7.90904C6.41878 7.85758 6.42525 7.83206 6.42339 7.83184C6.63011 7.50184 6.94745 7.23043 7.32573 7.08371C10.1378 5.99434 12.9029 4.95512 15.5987 4.06918C15.8739 3.97824 16.1645 3.97824 16.4401 4.06918C19.1364 4.95746 21.902 5.99855 24.7145 7.08934C25.1429 7.25574 25.4931 7.58152 25.6928 7.97105C25.6921 7.9713 25.6968 7.99956 25.7058 8.05394ZM18.3795 15.6415C18.3795 16.98 17.2944 18.0651 15.9558 18.0651C14.6173 18.0651 13.5322 16.98 13.5322 15.6415C13.5322 14.3029 14.6173 13.2178 15.9558 13.2178C17.2944 13.2178 18.3795 14.3029 18.3795 15.6415ZM14.838 9.92049C15.075 9.87397 15.2862 10.0626 15.2862 10.3041V11.9728C15.2862 12.1649 15.1499 12.3279 14.9663 12.3845C13.592 12.8083 12.5933 14.0884 12.5933 15.6018C12.5933 17.4609 14.1004 18.968 15.9595 18.968C17.8186 18.968 19.3257 17.4609 19.3257 15.6018C19.3257 14.0884 18.3269 12.8082 16.9526 12.3845C16.769 12.3279 16.6327 12.1648 16.6327 11.9727V10.3041C16.6327 10.0626 16.8438 9.87394 17.0808 9.92045C19.7418 10.4426 21.7494 12.7878 21.7494 15.6018C21.7494 18.7994 19.1572 21.3916 15.9595 21.3916C12.7619 21.3916 10.1697 18.7994 10.1697 15.6018C10.1697 12.7878 12.1771 10.4428 14.838 9.92049Z" fill="white"/>
</g>
<defs>
<clipPath id="clip0_321_2556">
<rect width="24" height="24" fill="white" transform="translate(4 4)"/>
</clipPath>
</defs>
</svg>
