<svg width="94" height="50" viewBox="0 0 94 50" fill="none" xmlns="http://www.w3.org/2000/svg">
<g filter="url(#filter0_b_323_324)">
<g clip-path="url(#clip0_323_324)">
<path d="M30.4456 44.6272C30.4456 44.1152 30.5496 43.7112 30.7576 43.4152C30.9736 43.1192 31.1936 42.9712 31.4176 42.9712C31.5536 42.9712 31.6656 43.0152 31.7536 43.1032C31.6576 43.2552 31.5776 43.4352 31.5136 43.6432C31.4576 43.8432 31.4296 44.0712 31.4296 44.3272C31.4296 44.8792 31.6216 45.2952 32.0056 45.5752C32.3976 45.8552 33.0216 45.9952 33.8776 45.9952C34.7656 45.9952 35.4096 45.8872 35.8096 45.6712C36.2096 45.4552 36.4096 45.2032 36.4096 44.9152C36.4096 44.6752 36.2936 44.4792 36.0616 44.3272C35.8376 44.1752 35.4336 44.0152 34.8496 43.8472C34.6736 43.7992 34.5416 43.7392 34.4536 43.6672C34.3736 43.5872 34.3336 43.4752 34.3336 43.3312C34.3336 43.1392 34.4536 42.9672 34.6936 42.8152C35.6936 43.0392 36.3896 43.3112 36.7816 43.6312C37.1736 43.9432 37.3696 44.3352 37.3696 44.8072C37.3696 45.4952 37.0736 46.0672 36.4816 46.5232C35.8896 46.9792 35.0216 47.2072 33.8776 47.2072C32.7656 47.2072 31.9136 46.9712 31.3216 46.4992C30.7376 46.0272 30.4456 45.4032 30.4456 44.6272ZM33.0856 47.7472C33.1576 47.9312 33.1936 48.0952 33.1936 48.2392C33.1936 48.6472 32.9776 48.8672 32.5456 48.8992C32.3776 48.8992 32.2056 48.8552 32.0296 48.7672C31.9496 48.5912 31.9096 48.4272 31.9096 48.2752C31.9096 47.8512 32.1296 47.6352 32.5696 47.6272C32.7376 47.6272 32.9096 47.6672 33.0856 47.7472ZM34.8976 47.7472C34.9696 47.9312 35.0056 48.0952 35.0056 48.2392C35.0056 48.6472 34.7896 48.8672 34.3576 48.8992C34.1896 48.8992 34.0176 48.8552 33.8416 48.7672C33.7616 48.5912 33.7216 48.4272 33.7216 48.2752C33.7216 47.8512 33.9416 47.6352 34.3816 47.6272C34.5496 47.6272 34.7216 47.6672 34.8976 47.7472ZM34.9966 37.3072C35.0686 37.4912 35.1046 37.6552 35.1046 37.7992C35.1046 38.2072 34.8886 38.4272 34.4566 38.4592C34.2886 38.4592 34.1166 38.4152 33.9406 38.3272C33.8606 38.1512 33.8206 37.9872 33.8206 37.8352C33.8206 37.4112 34.0406 37.1952 34.4806 37.1872C34.6486 37.1872 34.8206 37.2272 34.9966 37.3072ZM36.8086 37.3072C36.8806 37.4912 36.9166 37.6552 36.9166 37.7992C36.9166 38.2072 36.7006 38.4272 36.2686 38.4592C36.1006 38.4592 35.9286 38.4152 35.7526 38.3272C35.6726 38.1512 35.6326 37.9872 35.6326 37.8352C35.6326 37.4112 35.8526 37.1952 36.2926 37.1872C36.4606 37.1872 36.6326 37.2272 36.8086 37.3072ZM35.7286 39.4432C36.2166 40.3392 36.4606 41.2072 36.4606 42.0472C36.4606 42.5432 36.3606 42.9272 36.1606 43.1992C35.9606 43.4632 35.7166 43.5952 35.4286 43.5952C35.2366 43.5952 35.0846 43.5352 34.9726 43.4152C34.8526 43.2872 34.7926 43.0872 34.7926 42.8152C34.9206 42.8392 35.0126 42.8512 35.0686 42.8512C35.2046 42.8512 35.3206 42.7952 35.4166 42.6832C35.5046 42.5632 35.5486 42.3752 35.5486 42.1192C35.5486 41.6232 35.3846 41.1032 35.0566 40.5592C34.9286 40.3912 34.8646 40.2232 34.8646 40.0552C34.8646 39.7192 35.1526 39.5152 35.7286 39.4432ZM39.7246 36.7912V41.7112C39.7246 42.3752 39.8046 42.8352 39.9646 43.0912C40.1326 43.3472 40.4246 43.4752 40.8406 43.4752H40.9726C41.1646 43.4752 41.2526 43.6712 41.2366 44.0632C41.2366 44.2552 41.2166 44.4072 41.1766 44.5192C41.1366 44.6232 41.0686 44.6752 40.9726 44.6752H40.6846C39.9966 44.6752 39.4966 44.4672 39.1846 44.0512C38.8806 43.6352 38.7246 42.9632 38.7166 42.0352L38.6686 37.6192C38.6686 37.2672 38.7366 37.0312 38.8726 36.9112C39.0086 36.7832 39.1726 36.7192 39.3646 36.7192C39.5006 36.7192 39.6206 36.7432 39.7246 36.7912ZM48.15 39.9472C48.582 40.6832 48.798 41.5032 48.798 42.4072C48.798 43.1352 48.638 43.6952 48.318 44.0872C48.006 44.4792 47.578 44.6752 47.034 44.6752C46.674 44.6752 46.374 44.5952 46.134 44.4352C45.902 44.2672 45.742 44.0472 45.654 43.7752C45.398 44.3752 44.878 44.6752 44.094 44.6752C43.414 44.6752 42.962 44.3952 42.738 43.8352C42.65 44.0912 42.47 44.2952 42.198 44.4472C41.934 44.5992 41.562 44.6752 41.082 44.6752C40.914 44.6752 40.834 44.4752 40.842 44.0752C40.842 43.7152 40.922 43.5152 41.082 43.4752C41.474 43.4752 41.746 43.4032 41.898 43.2592C42.05 43.1072 42.126 42.8832 42.126 42.5872C42.126 42.3312 42.122 42.0632 42.114 41.7832C42.114 41.4312 42.306 41.2512 42.69 41.2432C42.858 41.2432 42.986 41.2792 43.074 41.3512V42.1192C43.074 42.6072 43.158 42.9552 43.326 43.1632C43.494 43.3712 43.75 43.4752 44.094 43.4752C44.414 43.4752 44.65 43.3992 44.802 43.2472C44.954 43.0952 45.03 42.8152 45.03 42.4072C45.03 42.0952 45.026 41.8072 45.018 41.5432C45.018 41.1912 45.198 41.0112 45.558 41.0032C45.742 41.0032 45.882 41.0392 45.978 41.1112V41.9752C45.978 42.5272 46.062 42.9152 46.23 43.1392C46.406 43.3632 46.654 43.4752 46.974 43.4752C47.246 43.4752 47.458 43.3872 47.61 43.2112C47.762 43.0352 47.838 42.7672 47.838 42.4072C47.838 42.1272 47.81 41.8832 47.754 41.6752C47.698 41.4592 47.622 41.2472 47.526 41.0392C47.398 40.7672 47.334 40.5712 47.334 40.4512C47.334 40.3072 47.41 40.1872 47.562 40.0912C47.714 39.9952 47.91 39.9472 48.15 39.9472ZM52.4918 43.7632C52.4918 44.8832 52.2438 45.7552 51.7478 46.3792C51.2598 47.0032 50.5558 47.3152 49.6358 47.3152C49.1238 47.3152 48.7318 47.2112 48.4598 47.0032C48.1958 46.8032 48.0638 46.5672 48.0638 46.2952C48.0638 45.9912 48.2198 45.7792 48.5318 45.6592C48.8118 45.9632 49.2158 46.1152 49.7438 46.1152C50.2638 46.1152 50.6918 45.9112 51.0278 45.5032C51.3638 45.0952 51.5678 44.5152 51.6398 43.7632C51.4878 43.2352 51.2438 42.5792 50.9078 41.7952C50.8438 41.6272 50.8118 41.4712 50.8118 41.3272C50.8118 41.1512 50.8598 41.0112 50.9558 40.9072C51.0598 40.8032 51.1758 40.7312 51.3038 40.6912C51.4398 40.6432 51.5638 40.6232 51.6758 40.6312C51.9238 41.0552 52.1198 41.5832 52.2638 42.2152C52.4158 42.8392 52.4918 43.3512 52.4918 43.7512V43.7632ZM53.9125 45.6592C54.1925 45.9632 54.5965 46.1152 55.1245 46.1152C55.6925 46.1152 56.1645 45.9752 56.5405 45.6952C56.9245 45.4152 57.1645 45.0552 57.2605 44.6152H56.5165C55.5965 44.6152 54.9005 44.4192 54.4285 44.0272C53.9645 43.6272 53.7325 43.0992 53.7325 42.4432C53.7325 41.7952 53.9285 41.2632 54.3205 40.8472C54.7205 40.4312 55.2205 40.2232 55.8205 40.2232C56.5565 40.2232 57.1325 40.5152 57.5485 41.0992C57.9725 41.6832 58.2005 42.4752 58.2325 43.4752H58.7125C58.8965 43.4752 58.9845 43.6672 58.9765 44.0512C58.9765 44.2352 58.9525 44.3872 58.9045 44.5072C58.8645 44.6192 58.8005 44.6752 58.7125 44.6752H58.1845C58.0725 45.4672 57.7645 46.1032 57.2605 46.5832C56.7565 47.0712 56.0685 47.3152 55.1965 47.3152C54.5885 47.3152 54.1445 47.2112 53.8645 47.0032C53.5845 46.8032 53.4445 46.5672 53.4445 46.2952C53.4445 45.9912 53.6005 45.7792 53.9125 45.6592ZM56.2045 43.4752H57.3445C57.3125 42.7712 57.1605 42.2352 56.8885 41.8672C56.6245 41.4912 56.2685 41.3032 55.8205 41.3032C55.4525 41.3032 55.1525 41.4072 54.9205 41.6152C54.6885 41.8232 54.5725 42.0912 54.5725 42.4192C54.5725 42.7232 54.6925 42.9752 54.9325 43.1752C55.1805 43.3752 55.6045 43.4752 56.2045 43.4752ZM59.7553 44.6752H58.8553C58.6873 44.6752 58.5993 44.4752 58.5913 44.0752C58.5913 43.6672 58.6793 43.4672 58.8553 43.4752H59.6113C60.2033 43.4752 60.6113 43.4112 60.8353 43.2832C61.0593 43.1552 61.1713 42.9432 61.1713 42.6472C61.1713 42.5032 61.1353 42.3392 61.0633 42.1552C60.9913 41.9712 60.8473 41.7272 60.6313 41.4232L59.2153 39.4552C59.2153 39.0072 59.3953 38.6952 59.7553 38.5192L62.6953 36.8752C62.9433 36.7552 63.1513 36.6952 63.3193 36.6952C63.7673 36.6952 63.9873 36.9352 63.9793 37.4152L60.4633 39.3232L61.5313 40.8232C61.7473 41.1192 61.9193 41.4232 62.0473 41.7352C62.1753 42.0392 62.2393 42.3592 62.2393 42.6952C62.2393 43.0392 62.1553 43.3632 61.9873 43.6672C61.8273 43.9632 61.5633 44.2072 61.1953 44.3992C60.8353 44.5832 60.3553 44.6752 59.7553 44.6752Z" fill="#667085"/>
<mask id="mask0_323_324" style="mask-type:alpha" maskUnits="userSpaceOnUse" x="33" y="5" width="29" height="30">
<rect x="33" y="5.09082" width="29" height="29.5249" fill="#667085"/>
</mask>
<g mask="url(#mask0_323_324)">
<path d="M36.6249 29.6954V16.1789C36.6249 15.9387 36.4999 15.7192 36.3178 15.5626C36.1073 15.3816 35.9229 15.1717 35.7645 14.933C35.5325 14.5844 35.4165 14.1744 35.4165 13.7028V10.0122C35.4165 9.33555 35.6534 8.75613 36.127 8.27389C36.5999 7.79247 37.1686 7.55176 37.8332 7.55176H57.1665C57.8311 7.55176 58.4002 7.79247 58.8739 8.27389C59.3468 8.75613 59.5832 9.33555 59.5832 10.0122V13.7028C59.5832 14.1744 59.4672 14.5844 59.2352 14.933C59.0768 15.1717 58.8924 15.3816 58.6819 15.5626C58.4998 15.7192 58.3749 15.9387 58.3749 16.1789V29.6954C58.3749 30.372 58.1384 30.9515 57.6656 31.4337C57.1919 31.9151 56.6228 32.1558 55.9582 32.1558H39.0415C38.377 32.1558 37.8078 31.9151 37.3342 31.4337C36.8613 30.9515 36.6249 30.372 36.6249 29.6954ZM39.7558 16.1632C39.3613 16.1632 39.0415 16.483 39.0415 16.8775V28.9811C39.0415 29.3756 39.3613 29.6954 39.7558 29.6954H55.2439C55.6384 29.6954 55.9582 29.3756 55.9582 28.9811V16.8775C55.9582 16.483 55.6384 16.1632 55.2439 16.1632H39.7558ZM56.4522 13.7028C56.8467 13.7028 57.1665 13.383 57.1665 12.9885V10.7265C57.1665 10.332 56.8467 10.0122 56.4522 10.0122H38.5475C38.153 10.0122 37.8332 10.332 37.8332 10.7265V12.9885C37.8332 13.383 38.153 13.7028 38.5475 13.7028H56.4522ZM43.8749 21.5999C43.8749 21.9944 44.1947 22.3142 44.5892 22.3142H50.4106C50.8051 22.3142 51.1249 21.9944 51.1249 21.5999V20.5681C51.1249 20.1736 50.8051 19.8538 50.4106 19.8538H44.5892C44.1947 19.8538 43.8749 20.1736 43.8749 20.5681V21.5999Z" fill="#667085"/>
</g>
</g>
</g>
<defs>
<filter id="filter0_b_323_324" x="-4" y="-4" width="102" height="57.8867" filterUnits="userSpaceOnUse" color-interpolation-filters="sRGB">
<feFlood flood-opacity="0" result="BackgroundImageFix"/>
<feGaussianBlur in="BackgroundImageFix" stdDeviation="2"/>
<feComposite in2="SourceAlpha" operator="in" result="effect1_backgroundBlur_323_324"/>
<feBlend mode="normal" in="SourceGraphic" in2="effect1_backgroundBlur_323_324" result="shape"/>
</filter>
<clipPath id="clip0_323_324">
<rect width="94" height="49.8869" fill="white"/>
</clipPath>
</defs>
</svg>
