<svg width="44" height="42" viewBox="0 0 44 42" fill="none" xmlns="http://www.w3.org/2000/svg">
<path d="M12.3889 32.612C12.9329 33.428 13.2049 34.288 13.2049 35.192C13.2049 35.848 13.0529 36.4 12.7489 36.848C12.4449 37.288 11.9569 37.624 11.2849 37.856C10.6129 38.08 9.72092 38.192 8.60892 38.192H8.18892C6.81292 38.192 5.81292 37.952 5.18892 37.472C4.57292 36.992 4.26492 36.272 4.26492 35.312C4.26492 34.8 4.37292 34.396 4.58892 34.1C4.81292 33.804 5.04092 33.656 5.27292 33.656C5.40892 33.656 5.52092 33.7 5.60892 33.788C5.51292 33.94 5.43292 34.12 5.36892 34.328C5.31292 34.536 5.28492 34.768 5.28492 35.024C5.28492 35.752 5.51692 36.264 5.98092 36.56C6.44492 36.856 7.24492 37.004 8.38092 37.004H8.60892C9.51292 37.004 10.2249 36.936 10.7449 36.8C11.2729 36.656 11.6449 36.456 11.8609 36.2C12.0849 35.936 12.1969 35.624 12.1969 35.264C12.1969 35.056 12.1609 34.856 12.0889 34.664C12.0249 34.472 11.9369 34.276 11.8249 34.076C11.6169 33.74 11.5129 33.472 11.5129 33.272C11.5129 33.104 11.5809 32.96 11.7169 32.84C11.8529 32.712 12.0769 32.636 12.3889 32.612ZM8.46492 38.744C8.63292 38.744 8.80492 38.784 8.98092 38.864C9.05292 39.048 9.08892 39.212 9.08892 39.356C9.08892 39.764 8.87292 39.984 8.44092 40.016C8.27292 40.016 8.10092 39.972 7.92492 39.884C7.84492 39.708 7.80492 39.544 7.80492 39.392C7.80492 38.968 8.02492 38.752 8.46492 38.744ZM15.7585 30.176V35.096C15.7585 35.76 15.8385 36.22 15.9985 36.476C16.1665 36.732 16.4585 36.86 16.8745 36.86H17.0065C17.1985 36.86 17.2865 37.056 17.2705 37.448C17.2705 37.64 17.2505 37.792 17.2105 37.904C17.1705 38.008 17.1025 38.06 17.0065 38.06H16.7185C16.0305 38.06 15.5305 37.852 15.2185 37.436C14.9145 37.02 14.7585 36.348 14.7505 35.42L14.7025 31.004C14.7025 30.652 14.7705 30.416 14.9065 30.296C15.0425 30.168 15.2065 30.104 15.3985 30.104C15.5345 30.104 15.6545 30.128 15.7585 30.176ZM25.804 36.86C25.948 36.86 26.028 37.06 26.044 37.46C26.044 37.82 25.964 38.02 25.804 38.06C24.964 38.06 24.42 37.76 24.172 37.16C24.068 37.448 23.904 37.672 23.68 37.832C23.456 37.984 23.2 38.06 22.912 38.06C22.208 38.06 21.752 37.78 21.544 37.22C21.288 37.78 20.816 38.06 20.128 38.06C19.448 38.06 18.996 37.78 18.772 37.22C18.684 37.476 18.504 37.68 18.232 37.832C17.968 37.984 17.596 38.06 17.116 38.06C16.948 38.06 16.868 37.86 16.876 37.46C16.876 37.1 16.956 36.9 17.116 36.86C17.508 36.86 17.78 36.788 17.932 36.644C18.084 36.492 18.16 36.268 18.16 35.972C18.16 35.716 18.156 35.448 18.148 35.168C18.148 34.816 18.34 34.636 18.724 34.628C18.892 34.628 19.02 34.664 19.108 34.736V35.504C19.108 35.992 19.192 36.34 19.36 36.548C19.528 36.756 19.784 36.86 20.128 36.86C20.672 36.86 20.94 36.564 20.932 35.972C20.932 35.716 20.928 35.448 20.92 35.168C20.92 34.816 21.112 34.636 21.496 34.628C21.664 34.628 21.792 34.664 21.88 34.736V35.504C21.88 35.992 21.96 36.34 22.12 36.548C22.28 36.756 22.516 36.86 22.828 36.86C23.084 36.86 23.272 36.788 23.392 36.644C23.52 36.492 23.584 36.232 23.584 35.864C23.584 35.384 23.576 34.976 23.56 34.64C23.56 34.464 23.612 34.332 23.716 34.244C23.828 34.148 23.968 34.1 24.136 34.1C24.304 34.1 24.432 34.136 24.52 34.208V35.42C24.52 35.948 24.624 36.32 24.832 36.536C25.04 36.752 25.364 36.86 25.804 36.86ZM33.6756 36.86H34.3116C34.4716 36.86 34.5516 37.056 34.5516 37.448C34.5516 37.832 34.4716 38.036 34.3116 38.06H34.0716C33.2716 38.06 32.6596 37.892 32.2356 37.556C31.8196 37.212 31.5636 36.644 31.4676 35.852C31.2996 35.988 31.1036 36.164 30.8796 36.38C30.2876 36.956 29.6236 37.38 28.8876 37.652C28.1596 37.924 27.2956 38.06 26.2956 38.06H25.8996C25.7476 38.06 25.6676 37.856 25.6596 37.448C25.6596 37.096 25.7396 36.9 25.8996 36.86H26.2956C27.2556 36.86 28.0276 36.784 28.6116 36.632C29.1956 36.48 29.7596 36.2 30.3036 35.792C30.7756 35.44 31.1236 35.176 31.3476 35C31.2756 34.968 31.1716 34.92 31.0356 34.856C30.8996 34.784 30.6836 34.668 30.3876 34.508C30.0836 34.34 29.7996 34.212 29.5356 34.124C29.2716 34.036 28.9876 33.992 28.6836 33.992C28.2676 33.992 27.9356 34.088 27.6876 34.28C27.4476 34.472 27.3036 34.704 27.2556 34.976C27.1756 35.008 27.0996 35.024 27.0276 35.024C26.9076 35.024 26.7876 34.968 26.6676 34.856C26.5556 34.744 26.4996 34.584 26.4996 34.376C26.4996 34.144 26.5836 33.9 26.7516 33.644C26.9196 33.404 27.1596 33.212 27.4716 33.068C27.7916 32.916 28.1596 32.84 28.5756 32.84C28.9756 32.84 29.3556 32.912 29.7156 33.056C30.0756 33.192 30.4556 33.38 30.8556 33.62C31.5596 34.076 32.2276 34.304 32.8596 34.304C33.0436 34.304 33.2476 34.296 33.4716 34.28C33.5196 34.376 33.5436 34.516 33.5436 34.7C33.5436 34.948 33.4436 35.172 33.2436 35.372H32.6556C32.4796 35.372 32.3156 35.392 32.1636 35.432C32.2036 35.968 32.3356 36.34 32.5596 36.548C32.7916 36.756 33.1636 36.86 33.6756 36.86ZM34.4137 36.86H34.5457C34.8577 36.86 35.1017 36.776 35.2777 36.608C35.4617 36.432 35.5537 36.088 35.5537 35.576C35.5537 34.744 35.5417 33.916 35.5177 33.092C35.5017 32.268 35.4937 31.572 35.4937 31.004C35.4937 30.66 35.5457 30.42 35.6497 30.284C35.7617 30.148 35.9377 30.08 36.1777 30.08C36.3377 30.08 36.4697 30.1 36.5737 30.14V35.48C36.5737 36.392 36.4177 37.052 36.1057 37.46C35.7937 37.86 35.3097 38.06 34.6537 38.06H34.4137C34.2617 38.06 34.1817 37.856 34.1737 37.448C34.1737 37.096 34.2537 36.9 34.4137 36.86ZM38.4751 38.048L38.4151 31.004C38.4151 30.66 38.4671 30.42 38.5711 30.284C38.6831 30.148 38.8591 30.08 39.0991 30.08C39.2591 30.08 39.3911 30.1 39.4951 30.14V37.04C39.4951 37.456 39.4431 37.74 39.3391 37.892C39.2431 38.044 39.0831 38.12 38.8591 38.12C38.7071 38.12 38.5791 38.096 38.4751 38.048Z" fill="#667085"/>
<path fill-rule="evenodd" clip-rule="evenodd" d="M10.4609 18.6833C13.5409 15.7049 17.3924 15.0288 21.333 15.0288C25.2738 15.0288 29.1252 15.7049 32.2052 18.6808C32.9241 19.3753 33.3882 20.8223 32.331 21.8549L32.331 21.8549C29.5262 24.5941 25.6306 26.2863 21.333 26.2863C17.036 26.2863 13.1409 24.5946 10.3365 21.8571L10.3365 21.8571C9.27944 20.8251 9.74248 19.3781 10.4609 18.6833ZM21.333 17.0288C17.5952 17.0288 14.3803 17.6754 11.8512 20.121C11.7712 20.1984 11.7282 20.2977 11.7204 20.3667C11.7171 20.3964 11.7213 20.4098 11.7217 20.4112C11.722 20.412 11.7222 20.4125 11.7228 20.4134C11.7233 20.4143 11.7261 20.4186 11.7336 20.426L11.035 21.1415L11.7336 20.426C14.1712 22.8054 17.5675 24.2863 21.333 24.2863C25.099 24.2863 28.4956 22.8051 30.9336 20.4241C30.9411 20.4167 30.9439 20.4124 30.9444 20.4116C30.945 20.4106 30.9452 20.4102 30.9455 20.4093C30.9459 20.408 30.95 20.3946 30.9467 20.365C30.9389 20.2962 30.8959 20.1967 30.8155 20.1191C28.2864 17.6754 25.071 17.0288 21.333 17.0288ZM14.4367 7.67071C14.4367 3.90511 17.5426 0.884766 21.3336 0.884766C25.1246 0.884766 28.2305 3.90511 28.2305 7.67071C28.2305 11.4362 25.1246 14.4566 21.3336 14.4566C17.5426 14.4566 14.4367 11.4362 14.4367 7.67071ZM21.3336 2.88477C18.6112 2.88477 16.4367 5.04533 16.4367 7.67071C16.4367 10.296 18.6112 12.4566 21.3336 12.4566C24.056 12.4566 26.2305 10.296 26.2305 7.67071C26.2305 5.04533 24.056 2.88477 21.3336 2.88477Z" fill="#667085"/>
</svg>
