<svg width="94" height="50" viewBox="0 0 94 50" fill="none" xmlns="http://www.w3.org/2000/svg">
<g filter="url(#filter0_b_323_333)">
<g clip-path="url(#clip0_323_333)">
<path d="M33.0895 36.8992C33.1615 37.0832 33.1975 37.2472 33.1975 37.3912C33.1975 37.7992 32.9815 38.0192 32.5495 38.0512C32.3815 38.0512 32.2095 38.0072 32.0335 37.9192C31.9535 37.7432 31.9135 37.5792 31.9135 37.4272C31.9135 37.0032 32.1335 36.7872 32.5735 36.7792C32.7415 36.7792 32.9135 36.8192 33.0895 36.8992ZM34.9015 36.8992C34.9735 37.0832 35.0095 37.2472 35.0095 37.3912C35.0095 37.7992 34.7935 38.0192 34.3615 38.0512C34.1935 38.0512 34.0215 38.0072 33.8455 37.9192C33.7655 37.7432 33.7255 37.5792 33.7255 37.4272C33.7255 37.0032 33.9455 36.7872 34.3855 36.7792C34.5535 36.7792 34.7255 36.8192 34.9015 36.8992ZM35.5495 44.0752C35.5495 44.4672 35.4695 44.6672 35.3095 44.6752H34.9855C34.4495 44.6752 34.0215 44.5552 33.7015 44.3152C33.3815 44.0752 33.1655 43.7552 33.0535 43.3552C32.9335 43.5632 32.7375 43.7472 32.4655 43.9072C32.2015 44.0592 31.8455 44.1352 31.3975 44.1352C30.8135 44.1352 30.3375 43.9712 29.9695 43.6432C29.6015 43.3072 29.4175 42.8792 29.4175 42.3592C29.4175 41.9592 29.5335 41.5752 29.7655 41.2072C30.0055 40.8312 30.3775 40.5232 30.8815 40.2832C31.3855 40.0352 32.0415 39.8912 32.8495 39.8512V39.3472C32.8495 39.0832 32.9135 38.8952 33.0415 38.7832C33.1775 38.6712 33.3295 38.6152 33.4975 38.6152C33.7135 38.6152 33.8775 38.6512 33.9895 38.7232V42.2512C33.9895 42.6992 34.0735 43.0152 34.2415 43.1992C34.4095 43.3832 34.6855 43.4752 35.0695 43.4752H35.3095C35.4695 43.4752 35.5495 43.6752 35.5495 44.0752ZM32.9095 42.3112L32.8615 40.8352C32.0295 40.8512 31.4175 40.9952 31.0255 41.2672C30.6335 41.5392 30.4375 41.8632 30.4375 42.2392C30.4375 42.5112 30.5335 42.7352 30.7255 42.9112C30.9175 43.0872 31.1735 43.1752 31.4935 43.1752C31.8375 43.1752 32.1255 43.0952 32.3575 42.9352C32.5975 42.7672 32.7815 42.5592 32.9095 42.3112ZM41.0575 43.4752H41.5495C41.7095 43.4752 41.7855 43.6712 41.7775 44.0632C41.7775 44.4952 41.7015 44.6992 41.5495 44.6752H41.2855C40.8455 44.6752 40.4455 44.6352 40.0855 44.5552C39.7255 44.4752 39.3615 44.3152 38.9935 44.0752C38.1455 44.4752 37.0615 44.6752 35.7415 44.6752H35.4055C35.2375 44.6752 35.1575 44.4752 35.1655 44.0752C35.1655 43.6432 35.2455 43.4432 35.4055 43.4752H35.6695C36.6055 43.4752 37.3775 43.4032 37.9855 43.2592C37.8175 43.0912 37.6335 42.9072 37.4335 42.7072L36.0895 41.3032L36.1615 40.1872C37.0415 39.9312 37.8815 39.8032 38.6815 39.8032C40.2655 39.8032 41.0455 40.3512 41.0215 41.4472C41.0215 42.1672 40.7095 42.8112 40.0855 43.3792C40.3655 43.4432 40.6895 43.4752 41.0575 43.4752ZM37.1455 41.1232L38.2495 42.1912C38.5535 42.4872 38.8295 42.7272 39.0775 42.9112C39.4215 42.7432 39.6735 42.5592 39.8335 42.3592C40.0015 42.1512 40.0855 41.9472 40.0855 41.7472C40.0855 41.2272 39.6095 40.9592 38.6575 40.9432C38.1455 40.9432 37.6415 41.0032 37.1455 41.1232ZM43.4344 43.7752C43.2264 44.1032 42.9784 44.3352 42.6904 44.4712C42.4024 44.6072 42.0584 44.6752 41.6584 44.6752C41.4904 44.6752 41.4024 44.4672 41.3944 44.0512C41.3944 43.8192 41.4184 43.6672 41.4664 43.5952C41.5144 43.5152 41.5784 43.4752 41.6584 43.4752C41.9864 43.4752 42.2544 43.3912 42.4624 43.2232C42.6784 43.0552 42.9344 42.6752 43.2304 42.0832C43.5424 41.4672 43.8864 41.0072 44.2624 40.7032C44.6464 40.3992 45.0944 40.2472 45.6064 40.2472C46.2224 40.2472 46.7384 40.4672 47.1544 40.9072C47.5704 41.3392 47.7784 41.9312 47.7784 42.6832C47.7784 43.3712 47.5984 43.9192 47.2384 44.3272C46.8784 44.7272 46.4024 44.9272 45.8104 44.9272C45.4424 44.9272 45.0624 44.8392 44.6704 44.6632C44.2864 44.4872 43.8744 44.1912 43.4344 43.7752ZM43.8424 42.8032C44.5144 43.4592 45.1504 43.7872 45.7504 43.7872C46.0864 43.7872 46.3464 43.6952 46.5304 43.5112C46.7224 43.3272 46.8184 43.0512 46.8184 42.6832C46.8184 42.2672 46.7024 41.9472 46.4704 41.7232C46.2384 41.4992 45.9384 41.3872 45.5704 41.3872C45.2104 41.3872 44.8984 41.5032 44.6344 41.7352C44.3704 41.9592 44.1064 42.3152 43.8424 42.8032ZM50.4496 36.7912V41.7112C50.4496 42.3752 50.5296 42.8352 50.6896 43.0912C50.8576 43.3472 51.1496 43.4752 51.5656 43.4752H51.6976C51.8896 43.4752 51.9776 43.6712 51.9616 44.0632C51.9616 44.2552 51.9416 44.4072 51.9016 44.5192C51.8616 44.6232 51.7936 44.6752 51.6976 44.6752H51.4096C50.7216 44.6752 50.2216 44.4672 49.9096 44.0512C49.6056 43.6352 49.4496 42.9632 49.4416 42.0352L49.3936 37.6192C49.3936 37.2672 49.4616 37.0312 49.5976 36.9112C49.7336 36.7832 49.8976 36.7192 50.0896 36.7192C50.2256 36.7192 50.3456 36.7432 50.4496 36.7912ZM59.583 43.4752H60.219C60.379 43.4752 60.459 43.6712 60.459 44.0632C60.459 44.4472 60.379 44.6512 60.219 44.6752H59.979C59.179 44.6752 58.567 44.5072 58.143 44.1712C57.727 43.8272 57.471 43.2592 57.375 42.4672C57.207 42.6032 57.011 42.7792 56.787 42.9952C56.195 43.5712 55.531 43.9952 54.795 44.2672C54.067 44.5392 53.203 44.6752 52.203 44.6752H51.807C51.655 44.6752 51.575 44.4712 51.567 44.0632C51.567 43.7112 51.647 43.5152 51.807 43.4752H52.203C53.163 43.4752 53.935 43.3992 54.519 43.2472C55.103 43.0952 55.667 42.8152 56.211 42.4072C56.683 42.0552 57.031 41.7912 57.255 41.6152C57.183 41.5832 57.079 41.5352 56.943 41.4712C56.807 41.3992 56.591 41.2832 56.295 41.1232C55.991 40.9552 55.707 40.8272 55.443 40.7392C55.179 40.6512 54.895 40.6072 54.591 40.6072C54.175 40.6072 53.843 40.7032 53.595 40.8952C53.355 41.0872 53.211 41.3192 53.163 41.5912C53.083 41.6232 53.007 41.6392 52.935 41.6392C52.815 41.6392 52.695 41.5832 52.575 41.4712C52.463 41.3592 52.407 41.1992 52.407 40.9912C52.407 40.7592 52.491 40.5152 52.659 40.2592C52.827 40.0192 53.067 39.8272 53.379 39.6832C53.699 39.5312 54.067 39.4552 54.483 39.4552C54.883 39.4552 55.263 39.5272 55.623 39.6712C55.983 39.8072 56.363 39.9952 56.763 40.2352C57.467 40.6912 58.135 40.9192 58.767 40.9192C58.951 40.9192 59.155 40.9112 59.379 40.8952C59.427 40.9912 59.451 41.1312 59.451 41.3152C59.451 41.5632 59.351 41.7872 59.151 41.9872H58.563C58.387 41.9872 58.223 42.0072 58.071 42.0472C58.111 42.5832 58.243 42.9552 58.467 43.1632C58.699 43.3712 59.071 43.4752 59.583 43.4752ZM56.787 44.8792C56.955 44.8792 57.127 44.9192 57.303 44.9992C57.375 45.1832 57.411 45.3472 57.411 45.4912C57.411 45.8992 57.195 46.1192 56.763 46.1512C56.595 46.1512 56.423 46.1072 56.247 46.0192C56.167 45.8432 56.127 45.6792 56.127 45.5272C56.127 45.1032 56.347 44.8872 56.787 44.8792ZM60.3211 43.4752H60.4531C60.7651 43.4752 61.0091 43.3912 61.1851 43.2232C61.3691 43.0472 61.4611 42.7032 61.4611 42.1912C61.4611 41.3592 61.4491 40.5312 61.4251 39.7072C61.4091 38.8832 61.4011 38.1872 61.4011 37.6192C61.4011 37.2752 61.4531 37.0352 61.5571 36.8992C61.6691 36.7632 61.8451 36.6952 62.0851 36.6952C62.2451 36.6952 62.3771 36.7152 62.4811 36.7552V42.0952C62.4811 43.0072 62.3251 43.6672 62.0131 44.0752C61.7011 44.4752 61.2171 44.6752 60.5611 44.6752H60.3211C60.1691 44.6752 60.0891 44.4712 60.0811 44.0632C60.0811 43.7112 60.1611 43.5152 60.3211 43.4752ZM64.3825 44.6632L64.3225 37.6192C64.3225 37.2752 64.3745 37.0352 64.4785 36.8992C64.5905 36.7632 64.7665 36.6952 65.0065 36.6952C65.1665 36.6952 65.2985 36.7152 65.4025 36.7552V43.6552C65.4025 44.0712 65.3505 44.3552 65.2465 44.5072C65.1505 44.6592 64.9905 44.7352 64.7665 44.7352C64.6145 44.7352 64.4865 44.7112 64.3825 44.6632Z" fill="#1486FF"/>
<mask id="path-2-inside-1_323_333" fill="white">
<path fill-rule="evenodd" clip-rule="evenodd" d="M45.3307 9.24917L34.1865 14.8766L45.3307 20.504L56.4749 14.8766L45.3307 9.24917ZM45.7814 7.23626C45.498 7.09312 45.1634 7.09312 44.8799 7.23626L31.5172 13.9839C30.7849 14.3537 30.7849 15.3994 31.5172 15.7692L34.0009 17.0234V25.5765C34.0009 28.3379 36.2395 30.5765 39.0009 30.5765H51.1902C53.9516 30.5765 56.1902 28.3379 56.1902 25.5765V17.2609L57.1347 16.7839V26.8465C56.0345 27.2516 55.2463 28.3445 55.2463 29.629C55.2463 31.2585 56.5146 32.5795 58.0792 32.5795C59.6438 32.5795 60.9122 31.2585 60.9122 29.629C60.9122 28.1975 59.9333 27.0041 58.6347 26.7352V16.0265L59.1442 15.7692C59.8765 15.3994 59.8765 14.3537 59.1442 13.9839L45.7814 7.23626ZM36.0009 25.5765V18.0333L44.8799 22.5169C45.1634 22.66 45.498 22.66 45.7814 22.5169L54.1902 18.2708V25.5765C54.1902 27.2334 52.847 28.5765 51.1902 28.5765H39.0009C37.344 28.5765 36.0009 27.2334 36.0009 25.5765ZM58.0792 31.0795C58.7585 31.0795 59.4122 30.4881 59.4122 29.629C59.4122 28.7699 58.7585 28.1786 58.0792 28.1786C57.3999 28.1786 56.7463 28.7699 56.7463 29.629C56.7463 30.4881 57.3999 31.0795 58.0792 31.0795Z"/>
</mask>
<path fill-rule="evenodd" clip-rule="evenodd" d="M45.3307 9.24917L34.1865 14.8766L45.3307 20.504L56.4749 14.8766L45.3307 9.24917ZM45.7814 7.23626C45.498 7.09312 45.1634 7.09312 44.8799 7.23626L31.5172 13.9839C30.7849 14.3537 30.7849 15.3994 31.5172 15.7692L34.0009 17.0234V25.5765C34.0009 28.3379 36.2395 30.5765 39.0009 30.5765H51.1902C53.9516 30.5765 56.1902 28.3379 56.1902 25.5765V17.2609L57.1347 16.7839V26.8465C56.0345 27.2516 55.2463 28.3445 55.2463 29.629C55.2463 31.2585 56.5146 32.5795 58.0792 32.5795C59.6438 32.5795 60.9122 31.2585 60.9122 29.629C60.9122 28.1975 59.9333 27.0041 58.6347 26.7352V16.0265L59.1442 15.7692C59.8765 15.3994 59.8765 14.3537 59.1442 13.9839L45.7814 7.23626ZM36.0009 25.5765V18.0333L44.8799 22.5169C45.1634 22.66 45.498 22.66 45.7814 22.5169L54.1902 18.2708V25.5765C54.1902 27.2334 52.847 28.5765 51.1902 28.5765H39.0009C37.344 28.5765 36.0009 27.2334 36.0009 25.5765ZM58.0792 31.0795C58.7585 31.0795 59.4122 30.4881 59.4122 29.629C59.4122 28.7699 58.7585 28.1786 58.0792 28.1786C57.3999 28.1786 56.7463 28.7699 56.7463 29.629C56.7463 30.4881 57.3999 31.0795 58.0792 31.0795Z" fill="#1486FF"/>
<path d="M34.1865 14.8766L33.2849 13.0913L29.7494 14.8766L33.2849 16.6619L34.1865 14.8766ZM45.3307 9.24917L46.2322 7.46387L45.3307 7.00864L44.4292 7.46387L45.3307 9.24917ZM45.3307 20.504L44.4292 22.2893L45.3307 22.7445L46.2322 22.2893L45.3307 20.504ZM56.4749 14.8766L57.3764 16.6619L60.9119 14.8766L57.3764 13.0913L56.4749 14.8766ZM44.8799 7.23626L43.9784 5.45096L43.9784 5.45096L44.8799 7.23626ZM45.7814 7.23626L46.6829 5.45096L46.6829 5.45096L45.7814 7.23626ZM31.5172 13.9839L30.6157 12.1986L30.6157 12.1986L31.5172 13.9839ZM31.5172 15.7692L30.6157 17.5545H30.6157L31.5172 15.7692ZM34.0009 17.0234H36.0009V15.7928L34.9024 15.2381L34.0009 17.0234ZM56.1902 17.2609L55.2887 15.4756L54.1902 16.0303V17.2609H56.1902ZM57.1347 16.7839H59.1347V13.5335L56.2332 14.9986L57.1347 16.7839ZM57.1347 26.8465L57.8257 28.7233L59.1347 28.2414V26.8465H57.1347ZM58.6347 26.7352H56.6347V28.3636L58.2292 28.6937L58.6347 26.7352ZM58.6347 16.0265L57.7332 14.2412L56.6347 14.7959V16.0265H58.6347ZM59.1442 15.7692L60.0457 17.5545L59.1442 15.7692ZM59.1442 13.9839L58.2427 15.7692L59.1442 13.9839ZM36.0009 18.0333L36.9024 16.248L34.0009 14.7829V18.0333H36.0009ZM44.8799 22.5169L45.7814 20.7316L45.7814 20.7316L44.8799 22.5169ZM45.7814 22.5169L44.8799 20.7316L44.8799 20.7316L45.7814 22.5169ZM54.1902 18.2708H56.1902V15.0203L53.2887 16.4855L54.1902 18.2708ZM35.088 16.6619L46.2322 11.0345L44.4292 7.46387L33.2849 13.0913L35.088 16.6619ZM46.2322 18.7187L35.088 13.0913L33.2849 16.6619L44.4292 22.2893L46.2322 18.7187ZM55.5734 13.0913L44.4292 18.7187L46.2322 22.2893L57.3764 16.6619L55.5734 13.0913ZM44.4292 11.0345L55.5734 16.6619L57.3764 13.0913L46.2322 7.46387L44.4292 11.0345ZM45.7814 9.02156C45.498 9.16469 45.1634 9.16469 44.8799 9.02156L46.6829 5.45096C45.8326 5.02155 44.8288 5.02156 43.9784 5.45096L45.7814 9.02156ZM32.4187 15.7692L45.7814 9.02156L43.9784 5.45096L30.6157 12.1986L32.4187 15.7692ZM32.4187 13.9839C33.151 14.3537 33.151 15.3994 32.4187 15.7692L30.6157 12.1986C28.4187 13.308 28.4187 16.4451 30.6157 17.5545L32.4187 13.9839ZM34.9024 15.2381L32.4187 13.9839L30.6157 17.5545L33.0994 18.8087L34.9024 15.2381ZM36.0009 25.5765V17.0234H32.0009V25.5765H36.0009ZM39.0009 28.5765C37.344 28.5765 36.0009 27.2334 36.0009 25.5765H32.0009C32.0009 29.4425 35.1349 32.5765 39.0009 32.5765V28.5765ZM51.1902 28.5765H39.0009V32.5765H51.1902V28.5765ZM54.1902 25.5765C54.1902 27.2334 52.847 28.5765 51.1902 28.5765V32.5765C55.0562 32.5765 58.1902 29.4425 58.1902 25.5765H54.1902ZM54.1902 17.2609V25.5765H58.1902V17.2609H54.1902ZM56.2332 14.9986L55.2887 15.4756L57.0917 19.0462L58.0362 18.5692L56.2332 14.9986ZM59.1347 26.8465V16.7839H55.1347V26.8465H59.1347ZM57.2463 29.629C57.2463 29.1677 57.5258 28.8338 57.8257 28.7233L56.4436 24.9697C54.5431 25.6695 53.2463 27.5212 53.2463 29.629H57.2463ZM58.0792 30.5795C57.695 30.5795 57.2463 30.2313 57.2463 29.629H53.2463C53.2463 32.2857 55.3342 34.5795 58.0792 34.5795V30.5795ZM58.9122 29.629C58.9122 30.2313 58.4634 30.5795 58.0792 30.5795V34.5795C60.8242 34.5795 62.9122 32.2857 62.9122 29.629H58.9122ZM58.2292 28.6937C58.5638 28.763 58.9122 29.1092 58.9122 29.629H62.9122C62.9122 27.2858 61.3028 25.2452 59.0401 24.7768L58.2292 28.6937ZM56.6347 16.0265V26.7352H60.6347V16.0265H56.6347ZM58.2427 13.9839L57.7332 14.2412L59.5362 17.8118L60.0457 17.5545L58.2427 13.9839ZM58.2427 15.7692C57.5103 15.3994 57.5103 14.3537 58.2427 13.9839L60.0457 17.5545C62.2427 16.4451 62.2427 13.308 60.0457 12.1986L58.2427 15.7692ZM44.8799 9.02156L58.2427 15.7692L60.0457 12.1986L46.6829 5.45096L44.8799 9.02156ZM34.0009 18.0333V25.5765H38.0009V18.0333H34.0009ZM45.7814 20.7316L36.9024 16.248L35.0994 19.8186L43.9784 24.3022L45.7814 20.7316ZM44.8799 20.7316C45.1634 20.5884 45.498 20.5884 45.7814 20.7316L43.9784 24.3022C44.8288 24.7316 45.8326 24.7316 46.6829 24.3022L44.8799 20.7316ZM53.2887 16.4855L44.8799 20.7316L46.6829 24.3022L55.0917 20.0561L53.2887 16.4855ZM56.1902 25.5765V18.2708H52.1902V25.5765H56.1902ZM51.1902 30.5765C53.9516 30.5765 56.1902 28.3379 56.1902 25.5765H52.1902C52.1902 26.1288 51.7425 26.5765 51.1902 26.5765V30.5765ZM39.0009 30.5765H51.1902V26.5765H39.0009V30.5765ZM34.0009 25.5765C34.0009 28.3379 36.2395 30.5765 39.0009 30.5765V26.5765C38.4486 26.5765 38.0009 26.1288 38.0009 25.5765H34.0009ZM57.4122 29.629C57.4122 29.4356 57.6026 29.0795 58.0792 29.0795V33.0795C59.9144 33.0795 61.4122 31.5407 61.4122 29.629H57.4122ZM58.0792 30.1786C57.6026 30.1786 57.4122 29.8224 57.4122 29.629H61.4122C61.4122 27.7174 59.9144 26.1786 58.0792 26.1786V30.1786ZM58.7463 29.629C58.7463 29.8224 58.5558 30.1786 58.0792 30.1786V26.1786C56.244 26.1786 54.7463 27.7174 54.7463 29.629H58.7463ZM58.0792 29.0795C58.5558 29.0795 58.7463 29.4356 58.7463 29.629H54.7463C54.7463 31.5407 56.244 33.0795 58.0792 33.0795V29.0795Z" fill="#1486FF" mask="url(#path-2-inside-1_323_333)"/>
</g>
</g>
<defs>
<filter id="filter0_b_323_333" x="-4" y="-4" width="102" height="57.8867" filterUnits="userSpaceOnUse" color-interpolation-filters="sRGB">
<feFlood flood-opacity="0" result="BackgroundImageFix"/>
<feGaussianBlur in="BackgroundImageFix" stdDeviation="2"/>
<feComposite in2="SourceAlpha" operator="in" result="effect1_backgroundBlur_323_333"/>
<feBlend mode="normal" in="SourceGraphic" in2="effect1_backgroundBlur_323_333" result="shape"/>
</filter>
<clipPath id="clip0_323_333">
<rect width="94" height="49.8869" fill="white"/>
</clipPath>
</defs>
</svg>
